<?xml version="1.0" encoding="UTF-8"?>
<svg version="1.1" xmlns="http://www.w3.org/2000/svg" width="366" height="366">
<path d="M0 0 C8.82547907 1.83817092 8.82547907 1.83817092 17.6953125 1.02734375 C51.81740165 -6.60115956 85.30727464 3.97464165 115.8203125 18.90234375 C116.71540527 19.33498535 117.61049805 19.76762695 118.53271484 20.21337891 C139.71207492 30.53891727 159.39804935 43.23396631 177.28857422 58.58789062 C178.62222942 59.7323598 179.97190327 60.85811019 181.32421875 61.98046875 C194.05754373 72.70835545 205.41199058 87.69174177 209.8203125 103.90234375 C211.04686045 118.33567543 207.91273851 127.79899248 200.55078125 140.08276367 C197.28848873 145.55908821 196.68341706 148.30622075 197.55078125 154.5859375 C199.12007267 168.07274638 196.23162042 180.99815218 189.8203125 192.90234375 C189.36269531 193.77117187 188.90507812 194.64 188.43359375 195.53515625 C169.00863501 229.10070208 124.68592956 245.89488447 89.3671875 255.40625 C73.20471119 259.5482493 56.49976961 262.19163453 39.8203125 262.90234375 C38.86253906 262.94359375 37.90476563 262.98484375 36.91796875 263.02734375 C-4.38083478 263.87776956 -42.83388965 251.24226412 -73.1796875 222.90234375 C-85.5366385 210.86044249 -94.03948567 196.46884834 -101.1796875 180.90234375 C-101.50678711 180.20222168 -101.83388672 179.50209961 -102.17089844 178.78076172 C-112.1381422 157.23692898 -117.91738628 134.17929546 -122.1796875 110.90234375 C-122.41429687 109.68417969 -122.64890625 108.46601563 -122.890625 107.2109375 C-127.63111229 79.21458138 -127.93970031 45.00928154 -112.3671875 20.15234375 C-102.19202994 5.95325738 -88.02028001 -0.21445659 -71.1796875 -3.09765625 C-47.14783711 -6.72538782 -23.74443246 -4.64988603 0 0 Z M-30.1171875 62.15234375 C-31.93737781 66.86342454 -32.00058896 71.0013088 -29.9921875 75.65234375 C-26.28528193 80.27662805 -26.28528193 80.27662805 -20.84375 82.32421875 C-16.46458469 82.56093039 -13.19422808 82.4415246 -9.6796875 79.65234375 C-5.80040269 75.38513046 -4.69015894 72.87120864 -4.8671875 66.9296875 C-5.39958223 63.47577669 -6.89831327 61.4838988 -9.1796875 58.90234375 C-16.95967666 53.82843777 -24.20329313 55.28459545 -30.1171875 62.15234375 Z M-2.1015625 96.109375 C-8.24806526 104.79663508 -9.62752151 113.24457024 -9.47265625 123.71875 C-9.46841141 124.81581772 -9.46416656 125.91288544 -9.45979309 127.04319763 C-9.44311677 130.51733853 -9.40548467 133.99088074 -9.3671875 137.46484375 C-9.35212641 139.83267386 -9.33844051 142.20051315 -9.32617188 144.56835938 C-9.29324937 150.34658179 -9.24154347 156.12436157 -9.1796875 161.90234375 C-3.2396875 161.90234375 2.7003125 161.90234375 8.8203125 161.90234375 C8.83489502 160.47970215 8.84947754 159.05706055 8.86450195 157.59130859 C8.92257066 152.30199325 8.99980376 147.01309978 9.08276367 141.72412109 C9.11597256 139.43708149 9.14401701 137.14996072 9.16674805 134.86279297 C9.2003676 131.57093797 9.25268874 128.27982403 9.30859375 124.98828125 C9.31817863 123.45982071 9.31817863 123.45982071 9.32795715 121.90048218 C9.45475443 115.74744348 9.9905029 111.0048173 14.3203125 106.2578125 C18.77704061 102.78759972 21.91920487 101.53036407 27.62890625 101.625 C33.10560318 102.3181292 36.8630325 104.69960735 40.2578125 108.96484375 C42.23281054 112.67784006 42.94786424 115.41331481 43.02563477 119.55737305 C43.0555526 120.96849617 43.0555526 120.96849617 43.08607483 122.40812683 C43.10278732 123.4207106 43.11949982 124.43329437 43.13671875 125.4765625 C43.15749985 126.51553177 43.17828094 127.55450104 43.19969177 128.62495422 C43.26511906 131.94651628 43.32404071 135.26815791 43.3828125 138.58984375 C43.42600419 140.84050305 43.46961869 143.09115427 43.51367188 145.34179688 C43.62079353 150.86189744 43.72208039 156.38207812 43.8203125 161.90234375 C49.7603125 161.90234375 55.7003125 161.90234375 61.8203125 161.90234375 C61.8296582 160.454646 61.83900391 159.00694824 61.84863281 157.51538086 C61.88860451 152.12721361 61.95438432 146.73961299 62.02783203 141.35180664 C62.05599985 139.02310483 62.07723514 136.69430815 62.09130859 134.36547852 C62.11279539 131.01138896 62.15947759 127.65843498 62.2109375 124.3046875 C62.21216614 123.26900131 62.21339478 122.23331512 62.21466064 121.16624451 C62.34102418 114.88295017 63.12208452 111.03606811 66.8203125 105.90234375 C70.7872489 102.57711765 75.67195147 101.21641692 80.8046875 101.51953125 C86.16068908 102.53675636 89.83223389 104.686247 93.2578125 108.90234375 C95.34164059 112.90329368 95.93944298 116.09712896 96.02563477 120.57910156 C96.0555526 121.96008026 96.0555526 121.96008026 96.08607483 123.36895752 C96.10278732 124.35450623 96.11949982 125.34005493 96.13671875 126.35546875 C96.15749985 127.37082703 96.17828094 128.3861853 96.19969177 129.43231201 C96.26501847 132.67225448 96.32399387 135.91227723 96.3828125 139.15234375 C96.42601376 141.35026868 96.46962857 143.54818553 96.51367188 145.74609375 C96.62068262 151.13142836 96.72199772 156.51684365 96.8203125 161.90234375 C102.7603125 161.90234375 108.7003125 161.90234375 114.8203125 161.90234375 C114.89506511 155.57098911 114.94919718 149.23989745 114.98510742 142.90820312 C115.00009463 140.75906899 115.02049137 138.60996492 115.04663086 136.4609375 C115.5408566 112.83825511 115.5408566 112.83825511 103.96875 92.93359375 C96.06878097 85.50573442 87.22085187 82.52053866 76.49609375 82.6953125 C68.24773295 83.33350684 62.4213443 86.45884718 55.94921875 91.4765625 C53.8203125 92.90234375 53.8203125 92.90234375 50.8203125 92.90234375 C49.41858001 91.70085876 48.01877282 90.49698883 46.6328125 89.27734375 C31.20395247 77.57269131 10.09466257 82.10354743 -2.1015625 96.109375 Z " fill="#3A68F0" transform="translate(143.1796875,55.09765625)"/>
<path d="M0 0 C0.93835693 0.15758789 1.87671387 0.31517578 2.84350586 0.47753906 C3.71370361 0.63834961 4.58390137 0.79916016 5.48046875 0.96484375 C6.24641357 1.10398193 7.0123584 1.24312012 7.80151367 1.38647461 C10.13419052 2.17064144 11.22498806 3.21392353 12.8125 5.0625 C12.131875 5.330625 11.45125 5.59875 10.75 5.875 C-6.33331793 12.78102214 -22.03447608 21.14174164 -36.1875 33.0625 C-36.94933594 33.68898437 -37.71117188 34.31546875 -38.49609375 34.9609375 C-44.51805125 40.07490487 -49.31204641 45.87006342 -54.1875 52.0625 C-54.85652344 52.85398438 -55.52554688 53.64546875 -56.21484375 54.4609375 C-69.00528677 69.70815868 -78.29539403 88.71595744 -84.625 107.5 C-84.84760498 108.1597583 -85.07020996 108.8195166 -85.29956055 109.49926758 C-88.98053269 121.09213288 -90.72617365 132.404665 -90.625 144.5625 C-90.61815186 145.83262939 -90.61130371 147.10275879 -90.60424805 148.41137695 C-90.45236516 157.25528436 -89.76752455 164.88126357 -86.1875 173.0625 C-85.82527344 173.95066406 -85.46304688 174.83882812 -85.08984375 175.75390625 C-76.59972667 194.60484417 -59.26724626 206.28328994 -40.578125 213.49609375 C-21.34388107 220.56302902 -1.15916463 222.6411921 19.1875 222.5 C20.14982544 222.49629395 21.11215088 222.49258789 22.1036377 222.48876953 C38.30488044 222.40033699 53.91545321 221.41675649 69.8125 218.0625 C71.06853027 217.79937012 72.32456055 217.53624023 73.61865234 217.26513672 C107.55084111 209.99887098 140.66128489 197.74142956 168.8125 177.0625 C169.40853027 176.62583008 170.00456055 176.18916016 170.61865234 175.73925781 C181.10332855 167.97013791 190.73409149 159.369435 198.8125 149.0625 C199.8025 149.3925 200.7925 149.7225 201.8125 150.0625 C204.16152229 165.62477269 202.34694966 180.07291579 194.8125 194.0625 C194.35488281 194.93132812 193.89726562 195.80015625 193.42578125 196.6953125 C174.00082251 230.26085833 129.67811706 247.05504072 94.359375 256.56640625 C78.19689869 260.70840555 61.49195711 263.35179078 44.8125 264.0625 C43.85472656 264.10375 42.89695313 264.145 41.91015625 264.1875 C0.61135272 265.03792581 -37.84170215 252.40242037 -68.1875 224.0625 C-80.544451 212.02059874 -89.04729817 197.62900459 -96.1875 182.0625 C-96.51459961 181.36237793 -96.84169922 180.66225586 -97.17871094 179.94091797 C-107.1459547 158.39708523 -112.92519878 135.33945171 -117.1875 112.0625 C-117.42210937 110.84433594 -117.65671875 109.62617188 -117.8984375 108.37109375 C-122.63892479 80.37473763 -122.94751281 46.16943779 -107.375 21.3125 C-97.19984244 7.11341363 -83.02809251 0.94569966 -66.1875 -1.9375 C-43.95236579 -5.29400801 -22.08790886 -3.84264838 0 0 Z " fill="#92DBFD" transform="translate(138.1875,53.9375)"/>
<path d="M0 0 C0.89509277 0.4326416 1.79018555 0.8652832 2.71240234 1.31103516 C23.89176242 11.63657352 43.57773685 24.33162256 61.46826172 39.68554688 C62.80191692 40.83001605 64.15159077 41.95576644 65.50390625 43.078125 C78.23723123 53.8060117 89.59167808 68.78939802 94 85 C94.8202895 94.65270903 94.79456086 103.3644926 90 112 C89.68901367 112.56912109 89.37802734 113.13824219 89.05761719 113.72460938 C86.20597285 118.92165713 83.28976835 124.06534747 80 129 C79.34 128.67 78.68 128.34 78 128 C78.04253906 127.12472656 78.08507812 126.24945313 78.12890625 125.34765625 C77.65878747 113.13881398 68.15744426 99.54325902 61 90 C60.55914062 89.236875 60.11828125 88.47375 59.6640625 87.6875 C57.72166595 84.55048397 55.49667435 81.82582476 53.125 79 C52.28195312 77.989375 51.43890625 76.97875 50.5703125 75.9375 C47.60365733 72.54703695 44.48362677 69.38130769 41.1875 66.3125 C40 65 40 65 40 63 C39.42765625 62.75765625 38.8553125 62.5153125 38.265625 62.265625 C35.58096551 60.76591866 33.86124784 58.9827585 31.75 56.75 C27.75866975 52.6740249 23.67304737 49.25428536 19 46 C18.31035156 45.51660156 17.62070312 45.03320312 16.91015625 44.53515625 C15.31248996 43.41815537 13.71199164 42.30519918 12.109375 41.1953125 C9.59917419 39.42303504 7.11604085 37.62472165 4.640625 35.8046875 C3.8573584 35.23113525 3.0740918 34.65758301 2.26708984 34.06665039 C0.70653573 32.92227589 -0.85060731 31.77323089 -2.40380859 30.61889648 C-7.09054236 27.19034284 -11.73421276 24.45378521 -17 22 C-17 21.34 -17 20.68 -17 20 C-17.82628906 19.75636719 -18.65257812 19.51273438 -19.50390625 19.26171875 C-23.55941705 17.79810982 -27.16575918 15.88130698 -30.9375 13.8125 C-40.65886319 8.57588045 -50.53712589 3.42250598 -60.97265625 -0.25390625 C-64.7273202 -1.63568046 -68.38990338 -3.24954773 -72.0703125 -4.81640625 C-75.02098794 -6.00847913 -77.96970839 -7.02753863 -81 -8 C-81.73202637 -8.2369458 -82.46405273 -8.4738916 -83.21826172 -8.71801758 C-85.76596834 -9.53549734 -88.31974183 -10.33146514 -90.875 -11.125 C-91.73480469 -11.40214844 -92.59460938 -11.67929687 -93.48046875 -11.96484375 C-98.86588911 -13.62378204 -103.36607765 -14.30065015 -109 -14 C-109.33 -14.99 -109.66 -15.98 -110 -17 C-109.05125 -16.95875 -108.1025 -16.9175 -107.125 -16.875 C-104.02647845 -16.86876555 -101.21600455 -17.29161041 -98.1875 -17.9375 C-63.82931765 -25.17891063 -30.74566738 -15.04150998 0 0 Z " fill="#6778F0" transform="translate(259,74)"/>
<path d="M0 0 C0.66 0.33 1.32 0.66 2 1 C-0.875 6.875 -0.875 6.875 -2 8 C-2.07756997 9.52479764 -2.085871 11.05319492 -2.06591797 12.57983398 C-2.05615936 13.55431992 -2.04640076 14.52880585 -2.03634644 15.53282166 C-2.02177399 16.59320145 -2.00720154 17.65358124 -1.9921875 18.74609375 C-1.97467164 20.96679231 -1.95776332 23.18749573 -1.94140625 25.40820312 C-1.9103982 28.92860139 -1.87485208 32.44876106 -1.82861328 35.96899414 C-1.78642801 39.35305838 -1.76287475 42.73683922 -1.7421875 46.12109375 C-1.72356659 47.17944931 -1.70494568 48.23780487 -1.6857605 49.32823181 C-1.68230621 50.3058699 -1.67885193 51.283508 -1.67529297 52.29077148 C-1.66561493 53.15379379 -1.65593689 54.0168161 -1.64596558 54.9059906 C-1.76279694 55.5970137 -1.8796283 56.2880368 -2 57 C-5.07144133 59.04762755 -5.69850959 59.2500695 -9.16015625 59.23046875 C-9.95357422 59.22853516 -10.74699219 59.22660156 -11.56445312 59.22460938 C-12.38880859 59.21236328 -13.21316406 59.20011719 -14.0625 59.1875 C-14.89072266 59.18685547 -15.71894531 59.18621094 -16.57226562 59.18554688 C-22.71893064 59.14053468 -22.71893064 59.14053468 -25 58 C-25 42.82 -25 27.64 -25 12 C-24.34 11.67 -23.68 11.34 -23 11 C-23 26.18 -23 41.36 -23 57 C-17.06 57 -11.12 57 -5 57 C-5.02618408 55.55753906 -5.05236816 54.11507812 -5.0793457 52.62890625 C-5.17015333 47.25422809 -5.22736109 41.87961715 -5.2746582 36.50439453 C-5.29973266 34.18233825 -5.33380092 31.86036035 -5.37719727 29.53857422 C-5.43815805 26.19218559 -5.46628149 22.84684447 -5.48828125 19.5 C-5.51408768 18.4694751 -5.5398941 17.4389502 -5.56648254 16.37719727 C-5.56910507 9.56899252 -4.27293938 5.34106825 0 0 Z " fill="#4768C7" transform="translate(210,160)"/>
<path d="M0 0 C3.24992446 -0.05819424 6.49971435 -0.09366116 9.75 -0.125 C10.67039063 -0.14175781 11.59078125 -0.15851563 12.5390625 -0.17578125 C13.42851562 -0.18222656 14.31796875 -0.18867188 15.234375 -0.1953125 C16.05131836 -0.20578613 16.86826172 -0.21625977 17.70996094 -0.22705078 C20.23846858 0.02364347 21.76054451 0.8486511 24 2 C26.33203812 2.0777346 28.66839059 2.08967728 31 2 C31.556875 3.093125 32.11375 4.18625 32.6875 5.3125 C34.61299667 8.73025659 36.53028242 10.12447699 40 12 C40.495 13.485 40.495 13.485 41 15 C40.34 15.66 39.68 16.32 39 17 C38.63390625 16.49210937 38.2678125 15.98421875 37.890625 15.4609375 C32.19908236 8.22454757 24.25607545 3.21391153 15 2 C12.38518042 1.93225856 9.80020744 1.90499742 7.1875 1.9375 C6.49462891 1.94201172 5.80175781 1.94652344 5.08789062 1.95117188 C3.39188932 1.96286844 1.69593297 1.98080076 0 2 C0 1.34 0 0.68 0 0 Z " fill="#4469CD" transform="translate(212,137)"/>
<path d="M0 0 C19.07451638 -0.62883021 36.9907817 1.55539996 55 8 C55 8.33 55 8.66 55 9 C52.69 9 50.38 9 48 9 C48 8.34 48 7.68 48 7 C47.34773438 7.03480469 46.69546875 7.06960937 46.0234375 7.10546875 C38.653002 7.33375658 38.653002 7.33375658 35.1875 5.5625 C30.82354822 3.42330795 26.73537368 3.44392814 21.92578125 3.2109375 C19 3 19 3 16 2 C13.26710707 1.77202438 10.54957796 1.58331813 7.8125 1.4375 C7.06291016 1.39431641 6.31332031 1.35113281 5.54101562 1.30664062 C3.69421625 1.20077315 1.84713166 1.0999024 0 1 C0 0.67 0 0.34 0 0 Z " fill="#6B76D3" transform="translate(176,54)"/>
<path d="M0 0 C0.66 0.33 1.32 0.66 2 1 C-0.875 6.875 -0.875 6.875 -2 8 C-2.09319449 9.5348297 -2.117458 11.07392082 -2.11352539 12.61157227 C-2.11344986 13.59251358 -2.11337433 14.5734549 -2.11329651 15.5841217 C-2.10813522 16.6507756 -2.10297394 17.7174295 -2.09765625 18.81640625 C-2.0962413 19.9025975 -2.09482635 20.98878876 -2.09336853 22.1078949 C-2.08775048 25.59279075 -2.07519492 29.07762342 -2.0625 32.5625 C-2.05748733 34.91861887 -2.05292402 37.27473874 -2.04882812 39.63085938 C-2.03777519 45.42059464 -2.02101951 51.21029281 -2 57 C-2.66 57 -3.32 57 -4 57 C-4.27079179 50.16909964 -4.50035924 43.33768594 -4.7019043 36.50439453 C-4.7751927 34.18213894 -4.85776252 31.86015632 -4.94995117 29.53857422 C-5.0811769 26.19267668 -5.17850042 22.84720342 -5.26953125 19.5 C-5.31721146 18.4694751 -5.36489166 17.4389502 -5.41401672 16.37719727 C-5.55642665 9.53252118 -4.31646028 5.35719986 0 0 Z " fill="#4069DF" transform="translate(210,160)"/>
<path d="M0 0 C3.43809236 1.92506154 5.70386027 3.87498526 7.75 7.3125 C8.5 10.625 8.5 10.625 8.75 13.3125 C8.09 13.3125 7.43 13.3125 6.75 13.3125 C6.75 11.6625 6.75 10.0125 6.75 8.3125 C5.43 7.9825 4.11 7.6525 2.75 7.3125 C2.70875 6.69375 2.6675 6.075 2.625 5.4375 C1.91331539 3.04102807 1.91331539 3.04102807 -0.8125 2.0625 C-6.80135088 0.75584163 -12.24477775 1.11145555 -18.25 2.3125 C-13.30823586 -3.09990834 -6.33023309 -2.93438842 0 0 Z " fill="#4564CC" transform="translate(230.25,157.6875)"/>
<path d="M0 0 C0.94875 0.825 1.8975 1.65 2.875 2.5 C6.74485093 5.24179722 9.8650015 5.72293571 14.5546875 5.5078125 C18.58982348 4.66984497 20.91777682 2.68019407 24 0 C23.67 1.65 23.34 3.3 23 5 C22.01 5.33 21.02 5.66 20 6 C20 7.32 20 8.64 20 10 C19.01 10.33 18.02 10.66 17 11 C16.34 10.34 15.68 9.68 15 9 C15.33 8.67 15.66 8.34 16 8 C15.14728516 8.10441406 15.14728516 8.10441406 14.27734375 8.2109375 C9.48601702 8.54689029 6.68674607 8.29034709 2.9375 5.125 C1.21484375 3.5078125 1.21484375 3.5078125 0 2 C0 1.34 0 0.68 0 0 Z " fill="#4064D4" transform="translate(113,131)"/>
<path d="M0 0 C1.37478516 0.01740234 1.37478516 0.01740234 2.77734375 0.03515625 C3.69644531 0.04417969 4.61554688 0.05320313 5.5625 0.0625 C6.27277344 0.07410156 6.98304688 0.08570313 7.71484375 0.09765625 C5.7476857 2.0648143 4.38516277 2.82381838 1.90234375 3.97265625 C-3.77997706 6.75227527 -7.89044372 10.57738051 -12.28515625 15.09765625 C-12.28515625 13.44765625 -12.28515625 11.79765625 -12.28515625 10.09765625 C-11.17140625 9.54078125 -10.05765625 8.98390625 -8.91015625 8.41015625 C-6.1644896 6.86018314 -5.39566766 6.31365582 -3.91015625 3.41015625 C-3.70390625 2.64703125 -3.49765625 1.88390625 -3.28515625 1.09765625 C-2.28515625 0.09765625 -2.28515625 0.09765625 0 0 Z " fill="#4365D8" transform="translate(151.28515625,138.90234375)"/>
<path d="M0 0 C1 3 1 3 -0.1796875 5.55859375 C-0.73914063 6.50863281 -1.29859375 7.45867187 -1.875 8.4375 C-3.73631186 11.61904468 -5.32791463 14.35522934 -6 18 C-6.66 18 -7.32 18 -8 18 C-8.103125 18.680625 -8.20625 19.36125 -8.3125 20.0625 C-9.15693671 23.67054778 -10.39239001 26.65617122 -12 30 C-12.66 30.33 -13.32 30.66 -14 31 C-12.07971895 23.67437399 -9.34646836 17.15534151 -5.875 10.4375 C-5.41996094 9.53708984 -4.96492188 8.63667969 -4.49609375 7.70898438 C-1.16969086 1.16969086 -1.16969086 1.16969086 0 0 Z " fill="#3F76E1" transform="translate(69,126)"/>
<path d="M0 0 C4.32439063 0.84489145 5.91532162 2.84521529 9 6 C14.78021489 11.02286112 14.78021489 11.02286112 22 13 C22.33 14.32 22.66 15.64 23 17 C13.77975398 13.66717713 5.85770336 7.81027114 0 0 Z " fill="#3E75E1" transform="translate(64,246)"/>
<path d="M0 0 C0.33 0.66 0.66 1.32 1 2 C0.30132812 2.47050781 -0.39734375 2.94101563 -1.1171875 3.42578125 C-2.02726562 4.04839844 -2.93734375 4.67101562 -3.875 5.3125 C-4.77992187 5.92738281 -5.68484375 6.54226562 -6.6171875 7.17578125 C-9.19971385 8.94913949 -9.19971385 8.94913949 -11 12 C-12.64333504 13.03789581 -14.31243867 14.03567924 -16 15 C-17.34631825 15.98244845 -18.68441297 16.97676564 -20 18 C-16.51111623 9.78011676 -7.30634975 4.55999133 0 0 Z " fill="#3D73E2" transform="translate(118,74)"/>
<path d="M0 0 C0.99 0 1.98 0 3 0 C3.8353125 1.6396875 3.8353125 1.6396875 4.6875 3.3125 C6.61299667 6.73025659 8.53028242 8.12447699 12 10 C12.33 10.99 12.66 11.98 13 13 C12.34 13.66 11.68 14.32 11 15 C10.52949219 14.44570312 10.05898437 13.89140625 9.57421875 13.3203125 C8.64029297 12.23363281 8.64029297 12.23363281 7.6875 11.125 C7.07261719 10.40570313 6.45773438 9.68640625 5.82421875 8.9453125 C3.9587676 6.80820669 3.9587676 6.80820669 1 5 C0.3125 2.375 0.3125 2.375 0 0 Z " fill="#4067D8" transform="translate(240,139)"/>
<path d="M0 0 C8.88240886 2.5378311 16.82618207 6.77769651 25 11 C21.16545846 12.27818051 20.2032874 11.45581372 16.625 9.75 C15.68914062 9.31171875 14.75328125 8.8734375 13.7890625 8.421875 C11.1127949 7.05750328 8.57343635 5.54666124 6 4 C5.0925 3.649375 4.185 3.29875 3.25 2.9375 C1 2 1 2 0 0 Z " fill="#6C75CE" transform="translate(244,68)"/>
<path d="M0 0 C0.66 0 1.32 0 2 0 C3.86783046 5.48675196 4.2358396 10.22192976 4 16 C1.70366176 12.55549263 1.45983515 10.06187717 1 6 C-0.65 6.33 -2.3 6.66 -4 7 C-3.67 6.01 -3.34 5.02 -3 4 C-2.34 4 -1.68 4 -1 4 C-0.67 2.68 -0.34 1.36 0 0 Z " fill="#99D7F5" transform="translate(337,205)"/>
<path d="M0 0 C0.87324262 2.44507934 1.10151327 3.67700322 0.3125 6.1875 C-1.33580471 8.46373031 -2.35673928 8.33918482 -5 9 C-5.33 9.66 -5.66 10.32 -6 11 C-6.33 11.66 -6.66 12.32 -7 13 C-9.0625 13.625 -9.0625 13.625 -11 14 C-7.46386286 9.21224044 -3.85516296 4.53548584 0 0 Z " fill="#3B6FE4" transform="translate(93,94)"/>
<path d="M0 0 C0.66 0 1.32 0 2 0 C4.4647256 2.7728163 5.66395707 5.57638998 7 9 C7.556875 9.86625 8.11375 10.7325 8.6875 11.625 C9.120625 12.40875 9.55375 13.1925 10 14 C9.67 14.99 9.34 15.98 9 17 C7.49743011 14.35559624 5.9978388 11.70958148 4.5 9.0625 C4.07074219 8.30775391 3.64148437 7.55300781 3.19921875 6.77539062 C2.79316406 6.05673828 2.38710938 5.33808594 1.96875 4.59765625 C1.59169922 3.93258057 1.21464844 3.26750488 0.82617188 2.58227539 C0 1 0 1 0 0 Z " fill="#A5D9F0" transform="translate(44,240)"/>
<path d="M0 0 C3.83663072 1.34929464 6.65172569 3.07751025 9.8125 5.625 C10.99779297 6.57246094 10.99779297 6.57246094 12.20703125 7.5390625 C12.79871094 8.02117187 13.39039063 8.50328125 14 9 C10.29896173 9 8.27828479 7.6391424 5 6 C4.01 6 3.02 6 2 6 C1.34 4.02 0.68 2.04 0 0 Z " fill="#6C75D1" transform="translate(297,97)"/>
<path d="M0 0 C-2.26607052 1.03275341 -4.53681939 2.05133551 -6.8125 3.0625 C-7.77639648 3.50432617 -7.77639648 3.50432617 -8.75976562 3.95507812 C-13.66015625 6.11328125 -13.66015625 6.11328125 -17 5 C-14.35261084 3.5393715 -13.10551666 3 -10 3 C-10 2.34 -10 1.68 -10 1 C-6.16112237 -0.48320272 -3.93795909 -1.22419163 0 0 Z " fill="#3C72E2" transform="translate(273,252)"/>
<path d="M0 0 C0.66 0 1.32 0 2 0 C0.68938409 4.23429756 -0.94356259 8.07407404 -3 12 C-4.42944945 9.64561267 -5.08661261 8.51967567 -4.625 5.75 C-4.41875 5.1725 -4.2125 4.595 -4 4 C-2.68 3.67 -1.36 3.34 0 3 C0 2.01 0 1.02 0 0 Z " fill="#6E79DB" transform="translate(349,180)"/>
<path d="M0 0 C0.99 0.33 1.98 0.66 3 1 C2.67 1.99 2.34 2.98 2 4 C2 3.34 2 2.68 2 2 C1.34 2 0.68 2 0 2 C-0.33 3.32 -0.66 4.64 -1 6 C-2.32 6.33 -3.64 6.66 -5 7 C-3.47793991 4.37098712 -2.15634036 2.15634036 0 0 Z M-6 7 C-6 7.99 -6 8.98 -6 10 C-6.99 10 -7.98 10 -9 10 C-8.01 9.01 -7.02 8.02 -6 7 Z " fill="#8CCAFB" transform="translate(337,203)"/>
<path d="M0 0 C6.1105424 -0.11269443 11.95170514 0.10395632 18 1 C18 1.33 18 1.66 18 2 C15.75215576 2.24942657 13.50152494 2.47383488 11.25 2.6875 C9.99703125 2.81511719 8.7440625 2.94273438 7.453125 3.07421875 C3.76068358 2.99485632 2.58403608 2.53835868 0 0 Z " fill="#9BD4EB" transform="translate(108,51)"/>
<path d="M0 0 C3.77545388 1.09068668 6.47043472 1.9083091 9 5 C8.195625 5.12375 7.39125 5.2475 6.5625 5.375 C5.2940625 5.684375 5.2940625 5.684375 4 6 C3.67 6.66 3.34 7.32 3 8 C2.34 7.34 1.68 6.68 1 6 C1.66 5.34 2.32 4.68 3 4 C2.01 2.68 1.02 1.36 0 0 Z " fill="#6675DB" transform="translate(269,80)"/>
<path d="M0 0 C4.08963819 2.28538605 7.46362104 4.95706926 11 8 C9.1875 8.6875 9.1875 8.6875 7 9 C5.5 7.8125 5.5 7.8125 4 6 C3.278125 5.319375 2.55625 4.63875 1.8125 3.9375 C0 2 0 2 0 0 Z " fill="#6A76D3" transform="translate(311,107)"/>
<path d="M0 0 C1.65 0.33 3.3 0.66 5 1 C1.16295224 3.55803184 -2.75712791 5.34505724 -7.4375 4.625 C-7.953125 4.41875 -8.46875 4.2125 -9 4 C-8.01 4 -7.02 4 -6 4 C-6 3.34 -6 2.68 -6 2 C-4.02 2 -2.04 2 0 2 C0 1.34 0 0.68 0 0 Z " fill="#9BD9F1" transform="translate(239,305)"/>
<path d="M0 0 C3.3 0 6.6 0 10 0 C6.12788877 2.90408342 3.59682146 3.85079464 -1 5 C-0.67 3.35 -0.34 1.7 0 0 Z " fill="#9CD7F5" transform="translate(256,298)"/>
<path d="M0 0 C2.64 0 5.28 0 8 0 C4.8745041 2.64465038 1.91211733 3.84414715 -2 5 C-1.34 3.35 -0.68 1.7 0 0 Z " fill="#9EDBF3" transform="translate(274,291)"/>
<path d="M0 0 C4.60853797 0.72008406 8.67237409 2.31295939 13 4 C13 4.33 13 4.66 13 5 C4.80743982 4.64989059 4.80743982 4.64989059 1.4375 1.9375 C0.963125 1.298125 0.48875 0.65875 0 0 Z " fill="#6B75CD" transform="translate(231,63)"/>
<path d="M0 0 C0.66 0.33 1.32 0.66 2 1 C1.195625 1.61875 0.39125 2.2375 -0.4375 2.875 C-3.03874519 4.74164041 -3.03874519 4.74164041 -4 7 C-5.32 7 -6.64 7 -8 7 C-6.88424427 3.65273281 -6.48655378 3.37920252 -3.5625 1.75 C-2.386875 1.1725 -1.21125 0.595 0 0 Z " fill="#8BCDFE" transform="translate(295,239)"/>
<path d="M0 0 C2.64 0.33 5.28 0.66 8 1 C8 1.99 8 2.98 8 4 C7.01 4.66 6.02 5.32 5 6 C3.35 4.02 1.7 2.04 0 0 Z " fill="#4062D5" transform="translate(190,144)"/>
<path d="M0 0 C2.31 1.65 4.62 3.3 7 5 C4 6 4 6 2 6 C1.34 6.66 0.68 7.32 0 8 C0 6.68 0 5.36 0 4 C-0.33 3.01 -0.66 2.02 -1 1 C-0.67 0.67 -0.34 0.34 0 0 Z " fill="#646FE0" transform="translate(323,117)"/>
<path d="M0 0 C0.66 0.33 1.32 0.66 2 1 C-0.97 3.97 -3.94 6.94 -7 10 C-7.33 9.01 -7.66 8.02 -8 7 C-5.36 4.69 -2.72 2.38 0 0 Z " fill="#A3D9EE" transform="translate(324,258)"/>
<path d="M0 0 C1.65 0 3.3 0 5 0 C2.11912454 2.40072955 -0.56404834 4.47291037 -4 6 C-4 4.35 -4 2.7 -4 1 C-2.68 1.33 -1.36 1.66 0 2 C0 1.34 0 0.68 0 0 Z " fill="#4969CF" transform="translate(204,140)"/>
<path d="M0 0 C0.33 0.99 0.66 1.98 1 3 C1.66 3.33 2.32 3.66 3 4 C2.34 4 1.68 4 1 4 C1 4.66 1 5.32 1 6 C0.01 6 -0.98 6 -2 6 C-2 6.99 -2 7.98 -2 9 C-2.66 9 -3.32 9 -4 9 C-2.94124926 5.59687262 -1.99097846 2.98646769 0 0 Z " fill="#A2DAF4" transform="translate(31,75)"/>
<path d="M0 0 C-0.969375 0.474375 -1.93875 0.94875 -2.9375 1.4375 C-5.80477437 2.70193947 -5.80477437 2.70193947 -7 4 C-8.99958364 4.04080783 -11.00045254 4.04254356 -13 4 C-9.0516245 0.65906688 -5.11813443 -1.70604481 0 0 Z " fill="#9FD7EF" transform="translate(62,56)"/>
<path d="M0 0 C0.66 0.33 1.32 0.66 2 1 C0.19368173 5.15453202 -0.81810551 7.22010276 -5 9 C-4.3566152 7.686298 -3.71021785 6.37407102 -3.0625 5.0625 C-2.70285156 4.33160156 -2.34320313 3.60070312 -1.97265625 2.84765625 C-1 1 -1 1 0 0 Z " fill="#4667CC" transform="translate(210,160)"/>
<path d="M0 0 C0.66 0.33 1.32 0.66 2 1 C0.4169423 5.2742558 -2.50568404 7.26531794 -6 10 C-4.6302836 6.00499382 -2.74277578 3.19990508 0 0 Z " fill="#4176E6" transform="translate(81,108)"/>
<path d="M0 0 C3.31832766 0.98652984 4.76548627 1.68731503 6.875 4.5 C7.24625 5.325 7.6175 6.15 8 7 C7.67 7.66 7.34 8.32 7 9 C5.83037314 7.69013727 4.66437056 6.3770374 3.5 5.0625 C2.8503125 4.33160156 2.200625 3.60070312 1.53125 2.84765625 C0 1 0 1 0 0 Z " fill="#A6DAF1" transform="translate(61,267)"/>
<path d="M0 0 C0.99 0.66 1.98 1.32 3 2 C0.36 3.98 -2.28 5.96 -5 8 C-3.47524303 4.95048605 -2.07114674 2.63600494 0 0 Z " fill="#3F74E0" transform="translate(319,218)"/>
<path d="M0 0 C0.99 0.33 1.98 0.66 3 1 C1.02 3.31 -0.96 5.62 -3 8 C-3 4.42424104 -1.91159393 2.94704065 0 0 Z " fill="#3D73DF" transform="translate(332,205)"/>
<path d="M0 0 C2.9719385 1.12451727 5.33440687 2.22293791 8 4 C8 4.66 8 5.32 8 6 C7.34 6 6.68 6 6 6 C6 5.34 6 4.68 6 4 C4.68 4 3.36 4 2 4 C2 3.34 2 2.68 2 2 C1.34 2 0.68 2 0 2 C0 1.34 0 0.68 0 0 Z " fill="#6B78DB" transform="translate(278,85)"/>
</svg>
