<?xml version="1.0" encoding="UTF-8"?>
<svg version="1.1" xmlns="http://www.w3.org/2000/svg" width="474" height="496">
<path d="M0 0 C0.598125 0.20625 1.19625 0.4125 1.8125 0.625 C2.53489906 19.04091848 3.04534007 37.4468345 3.3125 55.875 C3.33206757 57.17538208 3.35163513 58.47576416 3.37179565 59.81555176 C3.9453675 98.05150449 4.32821569 136.29049608 4.6188221 174.52954674 C4.71027938 186.51810039 4.82607647 198.50506967 5.02955723 210.49228859 C5.14024546 217.01508297 5.22796226 223.53782873 5.29456997 230.06122398 C5.34051349 234.40020789 5.41912403 238.73683262 5.52391243 243.07477283 C5.59116894 246.29044724 5.60630436 249.5064049 5.62890625 252.72265625 C5.66701416 253.84352127 5.70512207 254.96438629 5.74438477 256.11921692 C5.72602379 263.45023017 5.72602379 263.45023017 3.11447144 266.80862427 C1.09481514 268.60852567 -0.93567104 270.12991036 -3.1875 271.625 C-4.50174927 272.5965966 -5.8145117 273.57021155 -7.125 274.546875 C-8.47564296 275.49462495 -9.82994069 276.43718387 -11.1875 277.375 C-11.93040283 277.89320313 -12.67330566 278.41140625 -13.4387207 278.9453125 C-15.68512724 280.50985511 -17.93614986 282.06758349 -20.1875 283.625 C-21.38953757 284.46323393 -22.5913738 285.3017567 -23.79296875 286.140625 C-129.83071962 359.87422587 -129.83071962 359.87422587 -166.1875 358.625 C-177.49889719 355.95139703 -184.19250043 340.21868629 -190.27856445 331.00643921 C-199.13164356 317.61349163 -208.13458035 304.34288455 -217.37011719 291.20996094 C-219.18048643 288.63497578 -220.98562762 286.05640803 -222.7890625 283.4765625 C-225.6697266 279.35605866 -228.55366688 275.23786547 -231.43896484 271.12060547 C-234.50251076 266.74814438 -237.56359628 262.37396109 -240.625 258 C-242.26778848 255.65312525 -243.91059717 253.30626601 -245.55419922 250.95996094 C-246.6620831 249.37613411 -247.76780867 247.79079577 -248.87158203 246.20410156 C-253.22838198 239.95052223 -257.6859815 233.77512657 -262.1875 227.625 C-262.22508423 229.54856323 -262.22508423 229.54856323 -262.26342773 231.51098633 C-262.48745408 242.87553622 -262.72728763 254.23960585 -262.9879303 265.6033783 C-263.10922605 270.93266676 -263.21921482 276.26166607 -263.30204773 281.59169006 C-263.3534795 284.66562393 -263.42827801 287.73898251 -263.5 290.8125 C-263.51023193 291.88282471 -263.52046387 292.95314941 -263.53100586 294.0559082 C-263.55815674 295.02101318 -263.58530762 295.98611816 -263.61328125 296.98046875 C-263.62786377 297.79153076 -263.64244629 298.60259277 -263.6574707 299.43823242 C-264.58128814 303.24967081 -267.29690301 305.01337816 -270.41967773 307.15795898 C-271.63312866 307.88221069 -271.63312866 307.88221069 -272.87109375 308.62109375 C-273.78793945 309.17297363 -274.70478516 309.72485352 -275.64941406 310.29345703 C-276.63135742 310.87724121 -277.61330078 311.46102539 -278.625 312.0625 C-280.7126555 313.31831926 -282.79988616 314.574845 -284.88671875 315.83203125 C-286.46912354 316.78263428 -286.46912354 316.78263428 -288.08349609 317.75244141 C-292.72257593 320.5510683 -297.33276009 323.39532117 -301.9375 326.25 C-302.79907715 326.78351074 -303.6606543 327.31702148 -304.54833984 327.86669922 C-310.30489335 331.43834692 -316.03132587 335.05561742 -321.75 338.6875 C-329.07072078 343.33509135 -336.47365478 347.82939007 -343.92260742 352.26806641 C-349.01040209 355.3039708 -354.05374784 358.39813053 -359.0625 361.5625 C-368.19179367 367.32115924 -377.48780265 372.80549853 -386.81689453 378.23339844 C-388.31808059 379.11463021 -389.81007162 380.01188276 -391.28857422 380.93066406 C-392.87854047 381.90288865 -394.52878656 382.775363 -396.1875 383.625 C-397.1775 383.295 -398.1675 382.965 -399.1875 382.625 C-400.30843599 328.25725955 -400.37556837 273.89195869 -400.37261021 219.51447213 C-400.37296708 209.87741483 -400.38468636 200.24039301 -400.3985464 190.603347 C-400.41159127 181.19224734 -400.41698864 171.78116366 -400.41634732 162.37005502 C-400.41609348 156.79905051 -400.41888834 151.22809024 -400.42952538 145.65709496 C-400.43916595 140.47626034 -400.43931375 135.29551313 -400.43200874 130.11467552 C-400.43096123 128.21873853 -400.43333566 126.32279612 -400.4393692 124.42686844 C-400.44706121 121.84401988 -400.44246481 119.26147639 -400.43473816 116.67863464 C-400.43988172 115.92890151 -400.44502529 115.17916837 -400.45032471 114.40671605 C-400.42362887 110.37923582 -400.11261834 107.19465878 -398.1875 103.625 C-396.01489353 101.68155887 -393.91909061 100.00175809 -391.5625 98.3125 C-390.87317383 97.80686523 -390.18384766 97.30123047 -389.47363281 96.78027344 C-380.22916221 90.08295379 -370.6651593 83.83693536 -361.12939453 77.56567383 C-358.11203393 75.57521745 -355.10605534 73.56841117 -352.1015625 71.55859375 C-265.63542367 13.87244568 -265.63542367 13.87244568 -237.26953125 15.1640625 C-229.89782236 16.7960731 -224.91548978 25.40011423 -220.52978516 30.94140625 C-219.05931028 32.78578506 -217.56892661 34.61270892 -216.07421875 36.4375 C-209.29100384 44.72116809 -202.675727 53.10920207 -196.1875 61.625 C-194.62544267 63.64617553 -193.06293119 65.66700014 -191.5 67.6875 C-187.25682438 73.18775565 -183.09546595 78.74767953 -178.9375 84.3125 C-171.80968621 93.84692063 -164.51789197 103.24603959 -157.1875 112.625 C-151.86616372 119.43843677 -146.62779593 126.30592672 -141.5625 133.3125 C-141.12389648 133.91352539 -140.68529297 134.51455078 -140.23339844 135.13378906 C-137.1875 139.38919681 -137.1875 139.38919681 -137.1875 141.625 C-136.5275 141.625 -135.8675 141.625 -135.1875 141.625 C-135.21779297 140.9944873 -135.24808594 140.36397461 -135.27929688 139.71435547 C-135.65368321 131.68664844 -135.94327314 123.65768091 -136.1875 115.625 C-136.20872925 114.95309631 -136.2299585 114.28119263 -136.25183105 113.58892822 C-136.3988086 108.83021286 -136.49041602 104.07294918 -136.5625 99.3125 C-136.60052734 98.02649902 -136.63855469 96.74049805 -136.67773438 95.41552734 C-136.75870976 86.50466302 -136.75870976 86.50466302 -134.234375 82.6171875 C-130.22606609 79.99637014 -126.21059463 77.45731736 -122.0625 75.0625 C-120.25413191 73.99792013 -118.44686537 72.93146718 -116.640625 71.86328125 C-115.72732422 71.32396973 -114.81402344 70.7846582 -113.87304688 70.22900391 C-109.81037252 67.80247932 -105.80721613 65.28642861 -101.8125 62.75 C-101.04147949 62.26072021 -100.27045898 61.77144043 -99.47607422 61.26733398 C-97.04520755 59.7219866 -94.61624985 58.17367181 -92.1875 56.625 C-90.38292142 55.47639136 -88.57823059 54.32795905 -86.7734375 53.1796875 C-83.97510036 51.39910612 -81.17692949 49.6182673 -78.37939453 47.83642578 C-71.71668372 43.59354614 -65.04170459 39.37052856 -58.36010742 35.1574707 C-53.31309369 31.97311408 -48.27674215 28.77247105 -43.24536133 25.56347656 C-33.15371402 19.12707865 -23.02541793 12.75227052 -12.86645508 6.42260742 C-11.90634521 5.82424072 -10.94623535 5.22587402 -9.95703125 4.609375 C-8.68243042 3.81611816 -8.68243042 3.81611816 -7.38208008 3.00683594 C-2.04890759 -0.3512413 -2.04890759 -0.3512413 0 0 Z " fill="#682D84" transform="translate(425.1875,51.375)"/>
<path d="M0 0 C0.66 0.33 1.32 0.66 2 1 C1.01 2.485 1.01 2.485 0 4 C0 4.66 0 5.32 0 6 C-2.64 6.99 -5.28 7.98 -8 9 C-8.33 100.41 -8.66 191.82 -9 286 C-9.33 286 -9.66 286 -10 286 C-11.12093599 231.63225955 -11.18806837 177.26695869 -11.18511021 122.88947213 C-11.18546708 113.25241483 -11.19718636 103.61539301 -11.2110464 93.978347 C-11.22409127 84.56724734 -11.22948864 75.15616366 -11.22884732 65.74505502 C-11.22859348 60.17405051 -11.23138834 54.60309024 -11.24202538 49.03209496 C-11.25166595 43.85126034 -11.25181375 38.67051313 -11.24450874 33.48967552 C-11.24346123 31.59373853 -11.24583566 29.69779612 -11.2518692 27.80186844 C-11.25956121 25.21901988 -11.25496481 22.63647639 -11.24723816 20.05363464 C-11.25238172 19.30390151 -11.25752529 18.55416837 -11.26282471 17.78171605 C-11.23612382 13.75347359 -10.89123954 10.58532548 -9 7 C-6.8359375 4.98046875 -6.8359375 4.98046875 -4.375 3.1875 C-3.55773438 2.58292969 -2.74046875 1.97835937 -1.8984375 1.35546875 C-0.95871094 0.68451172 -0.95871094 0.68451172 0 0 Z " fill="#C5AACF" transform="translate(36,148)"/>
<path d="M0 0 C0.66 0 1.32 0 2 0 C2.81115371 5.04404801 3.19039783 9.98775652 3.29663086 15.09765625 C3.31589945 15.87142105 3.33516804 16.64518585 3.35502052 17.44239807 C3.41686851 19.98234966 3.47237181 22.52239095 3.52734375 25.0625 C3.56895037 26.86312165 3.61069566 28.66374009 3.65257263 30.46435547 C4.04719991 47.7989253 4.32679746 65.13478425 4.53242874 82.47254944 C4.56313976 85.05377082 4.59489481 87.63497815 4.62667847 90.21618652 C5.21165936 138.47536134 5.09599756 186.73826046 5 235 C4.67 235 4.34 235 4 235 C3.96241577 233.73446289 3.96241577 233.73446289 3.92407227 232.44335938 C3.82639482 229.17769896 3.72741828 225.91208244 3.62768555 222.64648438 C3.58553386 221.25847819 3.54383619 219.8704581 3.50268555 218.48242188 C3.44192762 216.43615483 3.37955691 214.38994457 3.31640625 212.34375 C3.29430084 211.61964935 3.27219543 210.89554871 3.24942017 210.14950562 C3.11533765 205.96162254 2.94673293 201.7773197 2.74169922 197.59228516 C1.9671157 181.51101797 1.91347673 165.47244745 2 149.375 C2.48375871 121.50124219 2.48375871 121.50124219 0.45507812 93.73535156 C-0.25239527 87.66504797 0.00604965 81.6061172 0.15625 75.5078125 C0.19600084 73.5198851 0.23574164 71.53195746 0.27497101 69.5440197 C0.37247741 64.70640673 0.48303915 59.8690752 0.59326172 55.03173828 C0.68449156 50.98223555 0.7680326 46.93263511 0.84375 42.8828125 C0.85617737 42.22076057 0.86860474 41.55870865 0.88140869 40.87659454 C1.12100148 27.22558682 0.69065281 13.63363019 0 0 Z " fill="#5B3470" transform="translate(423,53)"/>
<path d="M0 0 C6.15234375 0.5859375 6.15234375 0.5859375 8 1 C9 3 9 3 9 6 C9.63106429 8.01151741 10.29373761 10.01363702 11 12 C11.99 11.34 12.98 10.68 14 10 C14.99 10 15.98 10 17 10 C17 12.33333333 17 14.66666667 17 17 C17.31802943 18.66965451 17.64984951 20.33678518 18 22 C18.99 22.33 19.98 22.66 21 23 C24.62848665 26.62848665 25.69398178 28.96250115 27 34 C28.98 34 30.96 34 33 34 C32.7525 34.639375 32.505 35.27875 32.25 35.9375 C31.8813814 40.45307783 33.58403304 44.20348049 36 48 C36.99 48.33 37.98 48.66 39 49 C39.495 48.01 39.495 48.01 40 47 C40.18175781 47.78246094 40.36351562 48.56492187 40.55078125 49.37109375 C40.80214844 50.38300781 41.05351562 51.39492188 41.3125 52.4375 C41.55613281 53.44683594 41.79976562 54.45617187 42.05078125 55.49609375 C42.36402344 56.32238281 42.67726562 57.14867187 43 58 C43.99 58.33 44.98 58.66 46 59 C46.6875 61.0625 46.6875 61.0625 47 63 C47.66 63 48.32 63 49 63 C49 64.32 49 65.64 49 67 C49.78375 66.814375 50.5675 66.62875 51.375 66.4375 C54 66 54 66 56 67 C55.79375 67.94875 55.5875 68.8975 55.375 69.875 C55.189375 71.421875 55.189375 71.421875 55 73 C55.99 73.99 55.99 73.99 57 75 C57.226875 75.99 57.45375 76.98 57.6875 78 C58.120625 78.99 58.55375 79.98 59 81 C62.52451159 82.46022435 62.52451159 82.46022435 66 83 C66 83.99 66 84.98 66 86 C69.37462715 85.45276317 71.08235 84.9451 74 83 C74.33 83.99 74.66 84.98 75 86 C76.65 85.67 78.3 85.34 80 85 C80 84.34 80 83.68 80 83 C80.804375 82.71125 81.60875 82.4225 82.4375 82.125 C85.1326468 81.26737432 85.1326468 81.26737432 86 79 C86.66 79 87.32 79 88 79 C88.061875 78.38125 88.12375 77.7625 88.1875 77.125 C89 75 89 75 91.5625 73.75 C92.366875 73.5025 93.17125 73.255 94 73 C92.05463044 76.69620217 90.74284906 78.25333711 87 80 C86.505 81.485 86.505 81.485 86 83 C80.7758389 86.49313947 75.05830208 88.52480906 68.91015625 89.640625 C66.7893619 89.99500801 66.7893619 89.99500801 64 91 C58.90086946 87.93211207 56.1167073 83.10728502 52.94921875 78.23046875 C52.37791733 77.36578476 51.80661591 76.50110077 51.21800232 75.61021423 C49.99856729 73.76304331 48.78270913 71.91350693 47.57012939 70.06182861 C44.4187197 65.25037337 41.24077478 60.45648135 38.06640625 55.66015625 C37.44650818 54.72194031 36.82661011 53.78372437 36.18792725 52.81707764 C29.30803372 42.41517217 22.19086433 32.18886819 15 22 C12.9908396 19.14109423 10.98369054 16.28079385 8.97802734 13.41943359 C7.73664907 11.64897439 6.4935892 9.8796926 5.24853516 8.11181641 C4.4313501 6.94851807 4.4313501 6.94851807 3.59765625 5.76171875 C3.11820557 5.08069092 2.63875488 4.39966309 2.14477539 3.69799805 C1 2 1 2 0 0 Z " fill="#A55B97" transform="translate(191,318)"/>
<path d="M0 0 C0.66 0.33 1.32 0.66 2 1 C1.67 1.66 1.34 2.32 1 3 C0.01 3.33 -0.98 3.66 -2 4 C-3.35500919 5.31129922 -4.68671343 6.64691687 -6 8 C-9.53571429 11 -9.53571429 11 -13 11 C-13 12.98 -13 14.96 -13 17 C-13.33 16.34 -13.66 15.68 -14 15 C-14.66 15 -15.32 15 -16 15 C-16 15.66 -16 16.32 -16 17 C-17.65 16.67 -19.3 16.34 -21 16 C-21.66 17.32 -22.32 18.64 -23 20 C-23.66 20 -24.32 20 -25 20 C-25.33 38.81 -25.66 57.62 -26 77 C-31 77 -31 77 -32.8125 75.5 C-33.204375 75.005 -33.59625 74.51 -34 74 C-33.34 74 -32.68 74 -32 74 C-32.99 71.03 -32.99 71.03 -34 68 C-32.29115995 69.62339805 -30.62553283 71.29319053 -29 73 C-29 73.66 -29 74.32 -29 75 C-28.34 75 -27.68 75 -27 75 C-27.03029297 74.3694873 -27.06058594 73.73897461 -27.09179688 73.08935547 C-27.46618321 65.06164844 -27.75577314 57.03268091 -28 49 C-28.02122925 48.32809631 -28.0424585 47.65619263 -28.06433105 46.96392822 C-28.2113086 42.20521286 -28.30291602 37.44794918 -28.375 32.6875 C-28.41302734 31.40149902 -28.45105469 30.11549805 -28.49023438 28.79052734 C-28.57105496 19.89669786 -28.57105496 19.89669786 -26.109375 16.03125 C-21.75192312 13.18467339 -17.37726874 10.42536615 -12.875 7.8125 C-11.080462 6.75696449 -9.28618005 5.70099353 -7.4921875 4.64453125 C-6.70183105 4.18409424 -5.91147461 3.72365723 -5.09716797 3.24926758 C-3.36611371 2.21809125 -1.67650876 1.11767251 0 0 Z " fill="#6D4884" transform="translate(317,118)"/>
<path d="M0 0 C0.66 0.33 1.32 0.66 2 1 C1 4 1 4 -1.5 6.375 C-4.17936544 9.18833372 -4.40348175 10.3214708 -5 14 C-8.4352048 16.29013653 -9.985331 16.17842973 -14 16 C-14 16.66 -14 17.32 -14 18 C-16.23469063 20.70515182 -18.930546 22.34721708 -22 24 C-22.66 24 -23.32 24 -24 24 C-24 29.94 -24 35.88 -24 42 C-24.33 42 -24.66 42 -25 42 C-25 34.74 -25 27.48 -25 20 C-20 18 -20 18 -17 18 C-17.33 17.01 -17.66 16.02 -18 15 C-14.41954716 9.29779733 -9.1440749 6.22029186 -3.546875 2.63671875 C-1.15850033 1.22936072 -1.15850033 1.22936072 0 0 Z " fill="#68308A" transform="translate(53,136)"/>
<path d="M0 0 C3 0 3 0 4.5 1.125 C6.43973918 3.54967397 7.6146721 6.2293442 9 9 C9.66 9.33 10.32 9.66 11 10 C11 10.66 11 11.32 11 12 C11.66 12.33 12.32 12.66 13 13 C16.17993592 15.50540406 16.93855886 16.69279432 17.75 20.75 C17.87375 22.35875 17.87375 22.35875 18 24 C15.12184535 21.26039984 12.79950874 18.46810174 10.5625 15.1875 C8.52668415 12.21643696 6.47853994 9.25820772 4.38256836 6.3293457 C3.93546005 5.70429642 3.48835175 5.07924713 3.0276947 4.43525696 C2.68855545 3.96162216 2.3494162 3.48798737 2 3 C1.97494385 4.28237549 1.9498877 5.56475098 1.92407227 6.88598633 C0.98705114 54.47555638 0.98705114 54.47555638 0 77 C-0.33 77 -0.66 77 -1 77 C-1.11251575 51.31178793 -1.05981812 25.66958404 0 0 Z " fill="#B39ABE" transform="translate(161,276)"/>
<path d="M0 0 C0 15.84 0 31.68 0 48 C-0.33 48 -0.66 48 -1 48 C-1.33 32.49 -1.66 16.98 -2 1 C-2.33 1.99 -2.66 2.98 -3 4 C-3.99 4.33 -4.98 4.66 -6 5 C-7.20882096 7.00016466 -7.20882096 7.00016466 -8 9 C-8.99 9 -9.98 9 -11 9 C-11.33 9.66 -11.66 10.32 -12 11 C-12 10.34 -12 9.68 -12 9 C-13.98 9 -15.96 9 -18 9 C-15.48403597 6.25531197 -12.66872833 4.28991114 -9.5625 2.25 C-8.61503906 1.61578125 -7.66757812 0.9815625 -6.69140625 0.328125 C-4 -1 -4 -1 0 0 Z " fill="#866996" transform="translate(427,52)"/>
<path d="M0 0 C0.33 0 0.66 0 1 0 C1.21753217 25.00950669 0.59300096 49.99933193 0 75 C-0.78375 74.938125 -1.5675 74.87625 -2.375 74.8125 C-3.674375 74.9053125 -3.674375 74.9053125 -5 75 C-5.66 75.99 -6.32 76.98 -7 78 C-7.66 78 -8.32 78 -9 78 C-9.495 78.99 -9.495 78.99 -10 80 C-10.66 80 -11.32 80 -12 80 C-11.67278832 76.94602429 -10.96883223 75.96883223 -8.75 73.75 C-5.71972272 71.82164173 -4.47754698 71.83662531 -1 72 C-1.00222061 71.33395752 -1.00444122 70.66791504 -1.00672913 69.98168945 C-1.02906454 62.97217349 -1.04402287 55.96266784 -1.05493164 48.953125 C-1.05992238 46.34634998 -1.06671732 43.7395777 -1.07543945 41.1328125 C-1.16597155 13.35543511 -1.16597155 13.35543511 0 0 Z " fill="#5D3474" transform="translate(160,280)"/>
<path d="M0 0 C0.33 0 0.66 0 1 0 C1 17.49 1 34.98 1 53 C-0.32 53 -1.64 53 -3 53 C-4.3415388 50.31692239 -3.73680725 49.0716383 -3.1328125 46.140625 C-1.52056675 37.07411363 -1.28455051 27.93228959 -0.875 18.75 C-0.78840895 16.92575035 -0.70117421 15.10153114 -0.61328125 13.27734375 C-0.40143751 8.85187813 -0.19828794 4.42609287 0 0 Z " fill="#69487B" transform="translate(428,264)"/>
<path d="M0 0 C0.66 0.33 1.32 0.66 2 1 C0.38405168 3.04119788 -1.2856382 5.04072937 -3 7 C-3.66 7 -4.32 7 -5 7 C-5.33 7.99 -5.66 8.98 -6 10 C-11.2241611 13.49313947 -16.94169792 15.52480906 -23.08984375 16.640625 C-25.2106381 16.99500801 -25.2106381 16.99500801 -28 18 C-32 11.25 -32 11.25 -32 9 C-29.03 9.495 -29.03 9.495 -26 10 C-26 10.99 -26 11.98 -26 13 C-22.62537285 12.45276317 -20.91765 11.9451 -18 10 C-17.67 10.99 -17.34 11.98 -17 13 C-15.35 12.67 -13.7 12.34 -12 12 C-12 11.34 -12 10.68 -12 10 C-11.195625 9.71125 -10.39125 9.4225 -9.5625 9.125 C-6.8673532 8.26737432 -6.8673532 8.26737432 -6 6 C-5.34 6 -4.68 6 -4 6 C-3.896875 5.38125 -3.79375 4.7625 -3.6875 4.125 C-3 2 -3 2 0 0 Z " fill="#A15298" transform="translate(283,391)"/>
<path d="M0 0 C0.33 0 0.66 0 1 0 C1.88502962 13.05693074 2.12573722 26.04086167 2.0625 39.125 C2.05746598 40.97005084 2.05290649 42.81510305 2.04882812 44.66015625 C2.03799383 49.10680543 2.02083849 53.55338691 2 58 C-2.7734375 58.1875 -2.7734375 58.1875 -4.8125 56.5 C-5.204375 56.005 -5.59625 55.51 -6 55 C-5.34 55 -4.68 55 -4 55 C-4.66 53.02 -5.32 51.04 -6 49 C-4.29115995 50.62339805 -2.62553283 52.29319053 -1 54 C-1 54.66 -1 55.32 -1 56 C-0.34 56 0.32 56 1 56 C0.96970703 55.3694873 0.93941406 54.73897461 0.90820312 54.08935547 C0.06666526 36.04484161 -0.12239831 18.05845851 0 0 Z " fill="#A78FB7" transform="translate(289,137)"/>
<path d="M0 0 C0.33 0 0.66 0 1 0 C1.02532428 6.49616668 1.04285601 12.99232066 1.05493164 19.48852539 C1.059965 21.69914221 1.06679217 23.90975569 1.07543945 26.12036133 C1.08754859 29.295093 1.09323825 32.46978072 1.09765625 35.64453125 C1.10281754 36.63524124 1.10797882 37.62595123 1.11329651 38.64668274 C1.11337204 39.56741074 1.11344757 40.48813873 1.11352539 41.43676758 C1.115746 42.2472908 1.11796661 43.05781403 1.12025452 43.89289856 C1 46 1 46 0 49 C-0.66 49 -1.32 49 -2 49 C-2.33 50.32 -2.66 51.64 -3 53 C-4.07271138 49.78186585 -3.94419886 49.05728244 -3.10205078 45.92797852 C-1.91470114 40.98770918 -1.56628179 36.21755076 -1.3671875 31.15234375 C-1.32562531 30.25504044 -1.28406311 29.35773712 -1.24124146 28.4332428 C-1.11176487 25.60160254 -0.99319643 22.7696312 -0.875 19.9375 C-0.78848487 18.00322267 -0.70125199 16.0689773 -0.61328125 14.13476562 C-0.40056106 9.42350562 -0.19761393 4.71191682 0 0 Z " fill="#81378B" transform="translate(291,335)"/>
<path d="M0 0 C0.33 0 0.66 0 1 0 C1.02505615 1.22404541 1.0501123 2.44809082 1.07592773 3.70922852 C1.171271 8.32209852 1.27116269 12.93486144 1.37231445 17.54760742 C1.41519028 19.53065456 1.45689019 21.51372754 1.49731445 23.49682617 C1.55618606 26.37426658 1.6189844 29.25158928 1.68359375 32.12890625 C1.70352386 33.06570221 1.72345398 34.00249817 1.74398804 34.96768188 C1.84745426 39.19447917 1.99977016 43.39583911 2.36376953 47.60888672 C2.42282974 48.29965805 2.48188995 48.99042938 2.54273987 49.70213318 C2.70940696 51.50872756 2.90064739 53.31300927 3.09399414 55.11694336 C3 58 3 58 1.76733398 60.39672852 C0 62 0 62 -4 62 C-4 61.01 -4 60.02 -4 59 C-2.68 59 -1.36 59 0 59 C0 39.53 0 20.06 0 0 Z " fill="#572E75" transform="translate(291,136)"/>
<path d="M0 0 C0.66 0 1.32 0 2 0 C2 1.32 2 2.64 2 4 C0.19580078 5.64746094 0.19580078 5.64746094 -2.3046875 7.234375 C-3.19800781 7.80800781 -4.09132813 8.38164062 -5.01171875 8.97265625 C-5.95660156 9.55917969 -6.90148437 10.14570313 -7.875 10.75 C-8.81214844 11.35199219 -9.74929688 11.95398438 -10.71484375 12.57421875 C-17.68971443 17 -17.68971443 17 -20 17 C-19.8125 15.1875 -19.8125 15.1875 -19 13 C-16.09303401 10.85802506 -14.64478912 10 -11 10 C-11 9.01 -11 8.02 -11 7 C-10.34 7 -9.68 7 -9 7 C-8.814375 6.360625 -8.62875 5.72125 -8.4375 5.0625 C-7 3 -7 3 -3.375 2.25 C-1.704375 2.12625 -1.704375 2.12625 0 2 C0 1.34 0 0.68 0 0 Z " fill="#5F3575" transform="translate(371,353)"/>
<path d="M0 0 C0.66 0 1.32 0 2 0 C1.67 1.32 1.34 2.64 1 4 C0.01 4 -0.98 4 -2 4 C-2 4.99 -2 5.98 -2 7 C-7.75 10 -7.75 10 -10 10 C-10 10.66 -10 11.32 -10 12 C-13.75 13.125 -13.75 13.125 -16 12 C-16 13.32 -16 14.64 -16 16 C-16.99 16.33 -17.98 16.66 -19 17 C-19 16.34 -19 15.68 -19 15 C-20.32 15.33 -21.64 15.66 -23 16 C-19.28872305 11.71932166 -14.6271827 9.16802666 -9.8125 6.3125 C-8.1725108 5.330539 -6.5331529 4.34752262 -4.89453125 3.36328125 C-4.17112549 2.93313721 -3.44771973 2.50299316 -2.70239258 2.05981445 C-1.0362347 1.11176199 -1.0362347 1.11176199 0 0 Z " fill="#816190" transform="translate(383,76)"/>
<path d="M0 0 C1.32 0.33 2.64 0.66 4 1 C-0.61000715 4.97744899 -5.72084838 7.96594423 -10.9375 11.0625 C-11.81857422 11.59166016 -12.69964844 12.12082031 -13.60742188 12.66601562 C-17.99910839 15.28786892 -22.38119301 17.80093044 -27 20 C-26.7421875 18.140625 -26.7421875 18.140625 -26 16 C-24.2578125 14.734375 -24.2578125 14.734375 -22.125 13.75 C-21.42632812 13.41484375 -20.72765625 13.0796875 -20.0078125 12.734375 C-18 12 -18 12 -15 12 C-15 11.34 -15 10.68 -15 10 C-14.01 10 -13.02 10 -12 10 C-11.67 8.68 -11.34 7.36 -11 6 C-9.02 6 -7.04 6 -5 6 C-4.67 5.01 -4.34 4.02 -4 3 C-3.34 3.33 -2.68 3.66 -2 4 C-1.34 2.68 -0.68 1.36 0 0 Z " fill="#7A578C" transform="translate(155,354)"/>
<path d="M0 0 C0.66 0.33 1.32 0.66 2 1 C1.01 2.485 1.01 2.485 0 4 C0 4.66 0 5.32 0 6 C-2.64 6.99 -5.28 7.98 -8 9 C-8.33 23.19 -8.66 37.38 -9 52 C-9.33 52 -9.66 52 -10 52 C-10.24823206 45.8805069 -10.42911876 39.76397379 -10.54931641 33.640625 C-10.5994395 31.56067844 -10.66756202 29.48108137 -10.75439453 27.40234375 C-11.46066189 10.05309379 -11.46066189 10.05309379 -7.72949219 4.80859375 C-5.22386387 2.8040911 -2.92753293 1.29643172 0 0 Z " fill="#8E70A3" transform="translate(36,148)"/>
<path d="M0 0 C0.33 0 0.66 0 1 0 C1 10.23 1 20.46 1 31 C4.465 30.505 4.465 30.505 8 30 C8.33 29.01 8.66 28.02 9 27 C10.65 27 12.3 27 14 27 C4.57142857 35 4.57142857 35 0 35 C0 23.45 0 11.9 0 0 Z " fill="#653E78" transform="translate(27,400)"/>
<path d="M0 0 C0.66 0.33 1.32 0.66 2 1 C0.74615087 4.76154738 -1.14200302 6.27191198 -4 9 C-4.928125 9.928125 -5.85625 10.85625 -6.8125 11.8125 C-7.534375 12.534375 -8.25625 13.25625 -9 14 C-9.33 13.01 -9.66 12.02 -10 11 C-11.65 11.33 -13.3 11.66 -15 12 C-10.58990583 7.14889642 -5.41995647 3.651893 0 0 Z " fill="#8D6AA2" transform="translate(53,136)"/>
<path d="M0 0 C2.475 0.495 2.475 0.495 5 1 C1.10265497 4.22922874 -2.94878536 7.06198611 -7.1875 9.8125 C-7.81591797 10.23208984 -8.44433594 10.65167969 -9.09179688 11.08398438 C-10.68796248 12.12021167 -12.34063859 13.06831799 -14 14 C-14.66 13.67 -15.32 13.34 -16 13 C-14.63016497 9.83884224 -14.0109362 9.0072908 -11 7 C-10.01 7 -9.02 7 -8 7 C-8 6.34 -8 5.68 -8 5 C-3.84732824 1.88549618 -3.84732824 1.88549618 -0.6875 2.3125 C0.1478125 2.6528125 0.1478125 2.6528125 1 3 C0.67 2.01 0.34 1.02 0 0 Z " fill="#88689C" transform="translate(97,389)"/>
<path d="M0 0 C0.66 0.33 1.32 0.66 2 1 C0.35 2.65 -1.3 4.3 -3 6 C-1.35 6 0.3 6 2 6 C-1.59184236 8.18751302 -4.90946117 8.48497328 -9.0625 8.8125 C-10.29097656 8.92207031 -11.51945312 9.03164063 -12.78515625 9.14453125 C-16 9 -16 9 -17.93359375 7.51171875 C-18.28550781 7.01285156 -18.63742187 6.51398438 -19 6 C-18.04738281 5.81824219 -17.09476562 5.63648438 -16.11328125 5.44921875 C-14.23189453 5.07216797 -14.23189453 5.07216797 -12.3125 4.6875 C-10.45044922 4.32205078 -10.45044922 4.32205078 -8.55078125 3.94921875 C-5.18477175 3.04939443 -2.93392782 1.80264755 0 0 Z " fill="#763F7E" transform="translate(275,401)"/>
<path d="M0 0 C6.15234375 0.5859375 6.15234375 0.5859375 8 1 C9 3 9 3 9 6 C9.7734375 7.4540625 9.7734375 7.4540625 10.5625 8.9375 C12.10901958 12.23225911 12.05994031 12.74998435 11 16 C9.16283711 13.52365012 7.33092199 11.04346678 5.5 8.5625 C4.97535156 7.85544922 4.45070312 7.14839844 3.91015625 6.41992188 C3.41386719 5.74638672 2.91757813 5.07285156 2.40625 4.37890625 C1.94541016 3.7557251 1.48457031 3.13254395 1.00976562 2.49047852 C0 1 0 1 0 0 Z " fill="#A16998" transform="translate(191,318)"/>
<path d="M0 0 C0 0.66 0 1.32 0 2 C-2.09950586 2.86555948 -4.2047907 3.71711277 -6.3125 4.5625 C-8.07013672 5.27599609 -8.07013672 5.27599609 -9.86328125 6.00390625 C-13 7 -13 7 -16 6 C-16.33 5.01 -16.66 4.02 -17 3 C-14.36 3 -11.72 3 -9 3 C-9 2.34 -9 1.68 -9 1 C-5.64919071 -1.10976881 -3.77897651 -1.0497157 0 0 Z " fill="#633B7C" transform="translate(294,400)"/>
<path d="M0 0 C0.66 0.33 1.32 0.66 2 1 C1.34 1.66 0.68 2.32 0 3 C-1.32 3 -2.64 3 -4 3 C-4.226875 3.639375 -4.45375 4.27875 -4.6875 4.9375 C-6 7 -6 7 -8.625 7.75 C-9.800625 7.87375 -9.800625 7.87375 -11 8 C-11 8.66 -11 9.32 -11 10 C-12.98 10 -14.96 10 -17 10 C-17.33 10.66 -17.66 11.32 -18 12 C-18.99 11.34 -19.98 10.68 -21 10 C-17.54781943 8.29969216 -14.08736011 6.61696948 -10.625 4.9375 C-9.64015625 4.45216797 -8.6553125 3.96683594 -7.640625 3.46679688 C-6.69960937 3.01240234 -5.75859375 2.55800781 -4.7890625 2.08984375 C-3.91975098 1.66566162 -3.05043945 1.24147949 -2.15478516 0.80444336 C-1.0881665 0.4062439 -1.0881665 0.4062439 0 0 Z " fill="#724F86" transform="translate(155,76)"/>
<path d="M0 0 C3.0625 2.5 3.0625 2.5 5 5 C-0.445 4.505 -0.445 4.505 -6 4 C-6 3.34 -6 2.68 -6 2 C-6.81984375 2.22816406 -7.6396875 2.45632812 -8.484375 2.69140625 C-9.56203125 2.97886719 -10.6396875 3.26632813 -11.75 3.5625 C-12.81734375 3.85253906 -13.8846875 4.14257812 -14.984375 4.44140625 C-17.84335927 4.97098494 -19.31597383 4.98370862 -22 4 C-6.05028194 -1.5220044 -6.05028194 -1.5220044 0 0 Z " fill="#79588B" transform="translate(190,67)"/>
<path d="M0 0 C1.32 0.33 2.64 0.66 4 1 C1.39704724 2.31495542 -1.20728033 3.62704986 -3.8125 4.9375 C-4.55048828 5.31068359 -5.28847656 5.68386719 -6.04882812 6.06835938 C-6.76103516 6.42607422 -7.47324219 6.78378906 -8.20703125 7.15234375 C-8.8616333 7.48226318 -9.51623535 7.81218262 -10.19067383 8.15209961 C-12 9 -12 9 -15 10 C-14.76793596 6.75110346 -13.93662944 5.94435756 -11.4375 3.75 C-7.15178806 1.56818301 -4.73731534 1.6732886 0 2 C0 1.34 0 0.68 0 0 Z " fill="#674481" transform="translate(311,391)"/>
<path d="M0 0 C0 0.99 0 1.98 0 3 C-0.33 3.33 -0.66 3.66 -1 4 C-0.01 4.66 0.98 5.32 2 6 C-0.64 6 -3.28 6 -6 6 C-6 6.66 -6 7.32 -6 8 C-5.34 8.33 -4.68 8.66 -4 9 C-10.07027358 11.1583195 -15.59370576 11.20852314 -22 11 C-22 10.67 -22 10.34 -22 10 C-21.34773438 9.98582031 -20.69546875 9.97164063 -20.0234375 9.95703125 C-13.53029274 9.60268559 -10.63711942 8.52119144 -6 4 C-5.34 4 -4.68 4 -4 4 C-4 3.34 -4 2.68 -4 2 C-2.68 1.34 -1.36 0.68 0 0 Z " fill="#632A77" transform="translate(283,397)"/>
<path d="M0 0 C0.66 0.33 1.32 0.66 2 1 C1.25 2.9375 1.25 2.9375 0 5 C-1.9375 5.5625 -1.9375 5.5625 -4 6 C-5.58333333 7.41666667 -5.58333333 7.41666667 -7 9 C-10.44450737 11.29633824 -12.93812283 11.54016485 -17 12 C-13.97348807 8.82909668 -10.60408072 6.61481402 -6.9375 4.25 C-6.30005859 3.82589844 -5.66261719 3.40179688 -5.00585938 2.96484375 C-3.3776117 1.91137265 -1.69200355 0.94768972 0 0 Z " fill="#7F5C92" transform="translate(358,92)"/>
<path d="M0 0 C0.99 0.66 1.98 1.32 3 2 C0.71234889 3.67243423 -1.57973892 5.33806927 -3.875 7 C-4.52597656 7.47695313 -5.17695313 7.95390625 -5.84765625 8.4453125 C-10.7734375 12 -10.7734375 12 -13 12 C-13 11.01 -13 10.02 -13 9 C-11.01924973 7.63823419 -9.01920337 6.30406884 -7 5 C-7 4.34 -7 3.68 -7 3 C-6.34 3 -5.68 3 -5 3 C-5 3.66 -5 4.32 -5 5 C-4.34 5 -3.68 5 -3 5 C-2.87625 4.360625 -2.7525 3.72125 -2.625 3.0625 C-2.41875 2.381875 -2.2125 1.70125 -2 1 C-1.34 0.67 -0.68 0.34 0 0 Z " fill="#735486" transform="translate(390,341)"/>
<path d="M0 0 C1.32 0.66 2.64 1.32 4 2 C1.04968544 3.86716955 -1.91143123 5.71645299 -4.875 7.5625 C-5.71675781 8.09552734 -6.55851562 8.62855469 -7.42578125 9.17773438 C-8.23144531 9.67724609 -9.03710938 10.17675781 -9.8671875 10.69140625 C-10.61081543 11.15748291 -11.35444336 11.62355957 -12.12060547 12.10375977 C-12.74080566 12.39951904 -13.36100586 12.69527832 -14 13 C-14.66 12.67 -15.32 12.34 -16 12 C-15.67 11.01 -15.34 10.02 -15 9 C-13.35 9 -11.7 9 -10 9 C-10 8.34 -10 7.68 -10 7 C-9.01 7 -8.02 7 -7 7 C-7 6.34 -7 5.68 -7 5 C-6.01 5 -5.02 5 -4 5 C-3.67 3.68 -3.34 2.36 -3 1 C-2.67 1.66 -2.34 2.32 -2 3 C-1.34 3 -0.68 3 0 3 C0 2.01 0 1.02 0 0 Z " fill="#856598" transform="translate(124,373)"/>
<path d="M0 0 C0.433125 0.639375 0.86625 1.27875 1.3125 1.9375 C2.91239177 4.26746003 2.91239177 4.26746003 6 5 C6.0825 6.11375 6.165 7.2275 6.25 8.375 C6.57873787 12.05753944 6.57873787 12.05753944 9.0625 13.4375 C9.701875 13.623125 10.34125 13.80875 11 14 C11 14.66 11 15.32 11 16 C9.68 15.67 8.36 15.34 7 15 C6.87625 14.071875 6.87625 14.071875 6.75 13.125 C6.37875 12.073125 6.37875 12.073125 6 11 C5.34 10.690625 4.68 10.38125 4 10.0625 C3.34 9.711875 2.68 9.36125 2 9 C1.375 6.4375 1.375 6.4375 1 4 C0.34 3.67 -0.32 3.34 -1 3 C-0.67 2.01 -0.34 1.02 0 0 Z " fill="#7D3C7F" transform="translate(166,275)"/>
<path d="M0 0 C0.66 0.33 1.32 0.66 2 1 C0.38405168 3.04119788 -1.2856382 5.04072937 -3 7 C-3.66 7 -4.32 7 -5 7 C-5.33 7.99 -5.66 8.98 -6 10 C-8.1796875 11.421875 -8.1796875 11.421875 -10.875 12.75 C-11.75929688 13.19859375 -12.64359375 13.6471875 -13.5546875 14.109375 C-16 15 -16 15 -19 14 C-16.69 13.34 -14.38 12.68 -12 12 C-12 11.34 -12 10.68 -12 10 C-11.195625 9.71125 -10.39125 9.4225 -9.5625 9.125 C-6.8673532 8.26737432 -6.8673532 8.26737432 -6 6 C-5.34 6 -4.68 6 -4 6 C-3.896875 5.38125 -3.79375 4.7625 -3.6875 4.125 C-3 2 -3 2 0 0 Z " fill="#9C469B" transform="translate(283,391)"/>
<path d="M0 0 C0 0.66 0 1.32 0 2 C-0.99 2 -1.98 2 -3 2 C-3.05285156 2.60199219 -3.10570313 3.20398438 -3.16015625 3.82421875 C-4 6 -4 6 -6.43359375 7.51953125 C-7.92052734 8.15955078 -7.92052734 8.15955078 -9.4375 8.8125 C-10.42621094 9.25207031 -11.41492188 9.69164063 -12.43359375 10.14453125 C-13.70396484 10.56798828 -13.70396484 10.56798828 -15 11 C-15.66 10.67 -16.32 10.34 -17 10 C-15.43902526 8.8936781 -13.87614673 7.79004215 -12.3125 6.6875 C-11.44238281 6.07261719 -10.57226562 5.45773438 -9.67578125 4.82421875 C-2.59957173 0 -2.59957173 0 0 0 Z " fill="#7D6392" transform="translate(95,110)"/>
<path d="M0 0 C3.91939465 3.80411834 7.49102731 7.81576108 11 12 C10.67 12.66 10.34 13.32 10 14 C5.36203015 11.25938145 2.63409634 8.8629471 0 4 C0 2.68 0 1.36 0 0 Z " fill="#7E6292" transform="translate(219,102)"/>
<path d="M0 0 C0.78375 0.04125 1.5675 0.0825 2.375 0.125 C2.375 0.785 2.375 1.445 2.375 2.125 C3.035 2.455 3.695 2.785 4.375 3.125 C-2.375 7.125 -2.375 7.125 -4.625 7.125 C-4.75 4.75 -4.75 4.75 -4.625 2.125 C-2.625 0.125 -2.625 0.125 0 0 Z " fill="#744C8F" transform="translate(48.625,417.875)"/>
<path d="M0 0 C0.66 0 1.32 0 2 0 C2.703125 1.765625 2.703125 1.765625 3 4 C1.671875 5.921875 1.671875 5.921875 -0.25 7.75 C-0.87390625 8.36359375 -1.4978125 8.9771875 -2.140625 9.609375 C-4 11 -4 11 -7 11 C-7 11.66 -7 12.32 -7 13 C-7.66 12.67 -8.32 12.34 -9 12 C-8.2575 11.319375 -7.515 10.63875 -6.75 9.9375 C-3.75618047 6.96926868 -1.96562715 3.71285128 0 0 Z " fill="#793186" transform="translate(286,388)"/>
<path d="M0 0 C0.99 0 1.98 0 3 0 C3 1.32 3 2.64 3 4 C3.99 4 4.98 4 6 4 C6 4.99 6 5.98 6 7 C6.99 7.33 7.98 7.66 9 8 C9.73046875 9.84765625 9.73046875 9.84765625 10.1875 12.0625 C10.34605469 12.79597656 10.50460938 13.52945312 10.66796875 14.28515625 C10.77753906 14.85105469 10.88710937 15.41695313 11 16 C8.0253772 13.17015973 5.60002342 10.23934977 3.25 6.875 C2.63640625 6.00617188 2.0228125 5.13734375 1.390625 4.2421875 C0 2 0 2 0 0 Z " fill="#AB7AA7" transform="translate(180,301)"/>
<path d="M0 0 C0.66 0.33 1.32 0.66 2 1 C1.67 1.66 1.34 2.32 1 3 C0.01 3.33 -0.98 3.66 -2 4 C-3.35432675 5.31200404 -4.68733482 6.64631404 -6 8 C-9.22791555 10.1519437 -10.28400809 10.20086443 -14 10 C-11.46357916 7.21423609 -8.59630744 5.28576938 -5.4375 3.25 C-4.46683594 2.61578125 -3.49617188 1.9815625 -2.49609375 1.328125 C-1.67238281 0.88984375 -0.84867187 0.4515625 0 0 Z " fill="#785B88" transform="translate(317,118)"/>
<path d="M0 0 C1.32 0.66 2.64 1.32 4 2 C1.880788 3.36405618 -0.24448118 4.71631775 -2.375 6.0625 C-2.97828125 6.45244141 -3.5815625 6.84238281 -4.203125 7.24414062 C-5.76492557 8.22460432 -7.37992214 9.11916075 -9 10 C-9.66 9.67 -10.32 9.34 -11 9 C-10.67 8.01 -10.34 7.02 -10 6 C-9.01 6.33 -8.02 6.66 -7 7 C-6.67 6.01 -6.34 5.02 -6 4 C-2.9375 2.3125 -2.9375 2.3125 0 1 C0 0.67 0 0.34 0 0 Z " fill="#8A6B9E" transform="translate(77,402)"/>
<path d="M0 0 C1.32 0.66 2.64 1.32 4 2 C-5.71428571 10 -5.71428571 10 -9 10 C-8.8125 8.1875 -8.8125 8.1875 -8 6 C-5.09303401 3.85802506 -3.64478912 3 0 3 C0 2.01 0 1.02 0 0 Z " fill="#6F4F80" transform="translate(360,360)"/>
<path d="M0 0 C-5.445 3.96 -5.445 3.96 -11 8 C-11.66 7.01 -12.32 6.02 -13 5 C-12.34 4.01 -11.68 3.02 -11 2 C-9.35 2.33 -7.7 2.66 -6 3 C-6 2.01 -6 1.02 -6 0 C-4 -1 -4 -1 0 0 Z " fill="#785784" transform="translate(406,334)"/>
<path d="M0 0 C0.721875 0.103125 1.44375 0.20625 2.1875 0.3125 C2.1875 1.3025 2.1875 2.2925 2.1875 3.3125 C-0.8205208 6.3205208 -3.66713326 6.8414356 -7.8125 7.3125 C-7.8125 5.3125 -7.8125 5.3125 -5.625 2.6875 C-2.8125 0.3125 -2.8125 0.3125 0 0 Z " fill="#694481" transform="translate(419.8125,319.6875)"/>
<path d="M0 0 C0.66 0 1.32 0 2 0 C2 0.66 2 1.32 2 2 C2.66 2.33 3.32 2.66 4 3 C7.17993592 5.50540406 7.93855886 6.69279432 8.75 10.75 C8.87375 12.35875 8.87375 12.35875 9 14 C5.15237434 10.5798883 2.39365978 6.53225744 0 2 C0 1.34 0 0.68 0 0 Z " fill="#A77BA8" transform="translate(170,286)"/>
<path d="M0 0 C1.32 0.33 2.64 0.66 4 1 C0.19752197 4.226345 -3.55070439 6.77535219 -8 9 C-8.99 8.67 -9.98 8.34 -11 8 C-11 7.34 -11 6.68 -11 6 C-9.02 6 -7.04 6 -5 6 C-4.67 5.01 -4.34 4.02 -4 3 C-3.34 3.33 -2.68 3.66 -2 4 C-1.34 2.68 -0.68 1.36 0 0 Z " fill="#735184" transform="translate(155,354)"/>
<path d="M0 0 C2.0625 0.4375 2.0625 0.4375 4 1 C4.33 2.65 4.66 4.3 5 6 C4.34 6 3.68 6 3 6 C3 6.66 3 7.32 3 8 C2.01 7.67 1.02 7.34 0 7 C0 5.68 0 4.36 0 3 C-0.66 3 -1.32 3 -2 3 C-1 1 -1 1 0 0 Z " fill="#663E81" transform="translate(211,94)"/>
<path d="M0 0 C0 0.99 0 1.98 0 3 C-5.17578125 6.22265625 -5.17578125 6.22265625 -7 7 C-7.99 6.67 -8.98 6.34 -10 6 C-10 6.66 -10 7.32 -10 8 C-11.32 7.67 -12.64 7.34 -14 7 C-12.04480616 5.82807953 -10.0857461 4.6626071 -8.125 3.5 C-7.03445312 2.8503125 -5.94390625 2.200625 -4.8203125 1.53125 C-2 0 -2 0 0 0 Z " fill="#7E5E8F" transform="translate(125,92)"/>
<path d="M0 0 C2.83417891 0.35119173 3.81648089 0.78491224 5.703125 2.99609375 C6.21359375 3.80175781 6.7240625 4.60742188 7.25 5.4375 C7.77078125 6.24058594 8.2915625 7.04367187 8.828125 7.87109375 C10 10 10 10 10 12 C6.0884532 10.52041491 4.7725476 8.46042529 2.75 4.875 C1.96882812 3.50988281 1.96882812 3.50988281 1.171875 2.1171875 C0.78515625 1.41851562 0.3984375 0.71984375 0 0 Z " fill="#A9719F" transform="translate(244,395)"/>
<path d="M0 0 C-3.32473646 2.21649098 -6.15604843 2.95757246 -10 4 C-11.051875 4.391875 -12.10375 4.78375 -13.1875 5.1875 C-16.03726844 6.01076644 -17.27860767 6.04668936 -20 5 C-14.28447359 1.18964906 -6.8536779 -0.55570361 0 0 Z " fill="#5C3171" transform="translate(184,69)"/>
<path d="M0 0 C0 0.66 0 1.32 0 2 C-0.99 2 -1.98 2 -3 2 C-3.33 2.99 -3.66 3.98 -4 5 C-4.66 5 -5.32 5 -6 5 C-6.33 5.99 -6.66 6.98 -7 8 C-8.98 8 -10.96 8 -13 8 C-10.83676753 5.68757908 -8.62352196 3.9843604 -5.9375 2.3125 C-5.24527344 1.87550781 -4.55304688 1.43851563 -3.83984375 0.98828125 C-2 0 -2 0 0 0 Z " fill="#957AA5" transform="translate(422,53)"/>
<path d="M0 0 C0.99 0.33 1.98 0.66 3 1 C-5.20689655 8 -5.20689655 8 -10 8 C-10 7.34 -10 6.68 -10 6 C-9.01 6 -8.02 6 -7 6 C-7.33 5.01 -7.66 4.02 -8 3 C-5.36 2.67 -2.72 2.34 0 2 C0 1.34 0 0.68 0 0 Z " fill="#745383" transform="translate(325,383)"/>
<path d="M0 0 C0.33 0 0.66 0 1 0 C1.06058594 0.67546875 1.12117188 1.3509375 1.18359375 2.046875 C1.26738281 2.93890625 1.35117187 3.8309375 1.4375 4.75 C1.55931641 6.07257813 1.55931641 6.07257813 1.68359375 7.421875 C1.96238465 9.69350452 2.38790577 11.79851823 3 14 C1.68 14 0.36 14 -1 14 C-2.4552777 11.0894446 -1.63516661 9.04150948 -1.0625 5.875 C-0.77052734 4.23144531 -0.77052734 4.23144531 -0.47265625 2.5546875 C-0.31667969 1.71164062 -0.16070312 0.86859375 0 0 Z " fill="#633779" transform="translate(426,303)"/>
<path d="M0 0 C0 0.66 0 1.32 0 2 C0.66 2.33 1.32 2.66 2 3 C0.21189234 3.69670416 -1.58062052 4.38211189 -3.375 5.0625 C-4.37273437 5.44535156 -5.37046875 5.82820313 -6.3984375 6.22265625 C-9 7 -9 7 -11 6 C-9.54550599 4.9944239 -8.08627557 3.99569565 -6.625 3 C-5.40683594 2.1646875 -5.40683594 2.1646875 -4.1640625 1.3125 C-2 0 -2 0 0 0 Z " fill="#79558B" transform="translate(335,108)"/>
<path d="M0 0 C0.66 0.33 1.32 0.66 2 1 C1.01 2.485 1.01 2.485 0 4 C0 4.66 0 5.32 0 6 C-0.83144531 6.30744141 -0.83144531 6.30744141 -1.6796875 6.62109375 C-2.40414062 6.89050781 -3.12859375 7.15992188 -3.875 7.4375 C-4.95394531 7.83775391 -4.95394531 7.83775391 -6.0546875 8.24609375 C-8.03648845 8.97916854 -8.03648845 8.97916854 -10 10 C-8.5741914 6.54804233 -6.90253666 4.8985744 -3.875 2.75 C-3.15054688 2.22921875 -2.42609375 1.7084375 -1.6796875 1.171875 C-1.12539063 0.78515625 -0.57109375 0.3984375 0 0 Z " fill="#A586B3" transform="translate(36,148)"/>
<path d="M0 0 C0.66 0.66 1.32 1.32 2 2 C-1.12621626 5.39417765 -3.56541027 7.6062718 -8 9 C-6.75023244 5.34683329 -6.32901247 4.21934164 -3 2 C-2.01 2 -1.02 2 0 2 C0 1.34 0 0.68 0 0 Z " fill="#806094" transform="translate(89,394)"/>
<path d="M0 0 C0.99 0 1.98 0 3 0 C3.125 2.375 3.125 2.375 3 5 C2.34 5.66 1.68 6.32 1 7 C0.01 7 -0.98 7 -2 7 C-2.125 4.625 -2.125 4.625 -2 2 C-1.34 1.34 -0.68 0.68 0 0 Z " fill="#95448D" transform="translate(205,328)"/>
<path d="M0 0 C3.53600465 1.91135386 5.78972846 3.62642766 8 7 C7.67 7.66 7.34 8.32 7 9 C6.34 8.34 5.68 7.68 5 7 C4.01 7 3.02 7 2 7 C2.33 6.34 2.66 5.68 3 5 C2.01 4.67 1.02 4.34 0 4 C0 2.68 0 1.36 0 0 Z " fill="#7C5C8F" transform="translate(247,140)"/>
<path d="M0 0 C3.28788824 3.11016455 5.83735988 6.01618925 8 10 C4.12539202 8.74337038 2.0139745 7.60395437 0 4 C0 2.68 0 1.36 0 0 Z " fill="#816291" transform="translate(233,120)"/>
<path d="M0 0 C3.96 0 7.92 0 12 0 C9.6870518 2.3129482 8.52095125 2.49580975 5.375 3.125 C4.55773437 3.29257812 3.74046875 3.46015625 2.8984375 3.6328125 C1.95871094 3.81457031 1.95871094 3.81457031 1 4 C0.67 2.68 0.34 1.36 0 0 Z " fill="#734D89" transform="translate(277,403)"/>
<path d="M0 0 C3.35620271 1.38877354 5.07298728 2.91677965 7 6 C7 6.66 7 7.32 7 8 C4.625 7.6875 4.625 7.6875 2 7 C0 4 0 4 0 0 Z " fill="#866B99" transform="translate(258,154)"/>
<path d="M0 0 C0.99 0.33 1.98 0.66 3 1 C-0.96 4.465 -0.96 4.465 -5 8 C-5.66 7.67 -6.32 7.34 -7 7 C-6.67 6.01 -6.34 5.02 -6 4 C-5.01 4 -4.02 4 -3 4 C-3 3.34 -3 2.68 -3 2 C-2.01 1.34 -1.02 0.68 0 0 Z " fill="#613479" transform="translate(81,119)"/>
<path d="M0 0 C0 0.66 0 1.32 0 2 C-0.99 2.495 -0.99 2.495 -2 3 C-2.33 3.99 -2.66 4.98 -3 6 C-4.65 5.67 -6.3 5.34 -8 5 C-8 4.01 -8 3.02 -8 2 C-5.09399739 0.74335022 -3.20395416 0 0 0 Z " fill="#5D2D78" transform="translate(332,113)"/>
<path d="M0 0 C2.33944736 0.28730055 4.6739143 0.61936779 7 1 C5 4 5 4 1.875 4.6875 C0.92625 4.790625 -0.0225 4.89375 -1 5 C-1 1 -1 1 0 0 Z " fill="#5B3174" transform="translate(401,66)"/>
<path d="M0 0 C0.99 0 1.98 0 3 0 C3 2.31 3 4.62 3 7 C2.34 6.67 1.68 6.34 1 6 C1 5.34 1 4.68 1 4 C0.01 4.33 -0.98 4.66 -2 5 C-1.34 3.35 -0.68 1.7 0 0 Z M-5 5 C-4.01 5.33 -3.02 5.66 -2 6 C-2.99 6.33 -3.98 6.66 -5 7 C-5 6.34 -5 5.68 -5 5 Z " fill="#5D2C7D" transform="translate(421,56)"/>
<path d="M0 0 C2.625 0.375 2.625 0.375 5 1 C4.01 1.33 3.02 1.66 2 2 C2 2.66 2 3.32 2 4 C0.68 4 -0.64 4 -2 4 C-2 4.66 -2 5.32 -2 6 C-3.65 6.33 -5.3 6.66 -7 7 C-7 6.34 -7 5.68 -7 5 C-5.35666496 3.96210419 -3.68756133 2.96432076 -2 2 C-1.34 1.34 -0.68 0.68 0 0 Z " fill="#593072" transform="translate(313,387)"/>
<path d="M0 0 C0 0.66 0 1.32 0 2 C-0.99 2.33 -1.98 2.66 -3 3 C-3.99 4.485 -3.99 4.485 -5 6 C-7.62356462 6.98515378 -10.24524123 7.42238929 -13 8 C-10.83676753 5.68757908 -8.62352196 3.9843604 -5.9375 2.3125 C-5.24527344 1.87550781 -4.55304688 1.43851562 -3.83984375 0.98828125 C-2 0 -2 0 0 0 Z " fill="#9478A8" transform="translate(111,100)"/>
<path d="M0 0 C-0.33 1.32 -0.66 2.64 -1 4 C-1.99 4 -2.98 4 -4 4 C-4 4.66 -4 5.32 -4 6 C-5.32 6 -6.64 6 -8 6 C-8 5.34 -8 4.68 -8 4 C-7.34 4 -6.68 4 -6 4 C-6 3.34 -6 2.68 -6 2 C-3 0 -3 0 0 0 Z " fill="#5A2E78" transform="translate(144,360)"/>
<path d="M0 0 C6.15234375 0.5859375 6.15234375 0.5859375 8 1 C8.33 1.66 8.66 2.32 9 3 C8.67 3.66 8.34 4.32 8 5 C5.6875 5.3125 5.6875 5.3125 3 5 C1.1875 2.5 1.1875 2.5 0 0 Z " fill="#9E5895" transform="translate(191,318)"/>
<path d="M0 0 C0 1.32 0 2.64 0 4 C-2.31 4.66 -4.62 5.32 -7 6 C-7.66 5.34 -8.32 4.68 -9 4 C-2.25 0 -2.25 0 0 0 Z " fill="#79538F" transform="translate(134,87)"/>
<path d="M0 0 C-0.33 1.32 -0.66 2.64 -1 4 C-2.65 4 -4.3 4 -6 4 C-6 2.68 -6 1.36 -6 0 C-3 -1 -3 -1 0 0 Z " fill="#5C2E7A" transform="translate(393,75)"/>
<path d="M0 0 C1.98 0 3.96 0 6 0 C5.67 1.65 5.34 3.3 5 5 C3.68 5 2.36 5 1 5 C0.67 3.35 0.34 1.7 0 0 Z " fill="#834585" transform="translate(178,296)"/>
<path d="M0 0 C3 1 3 1 5 4 C5.07905064 6.33199388 5.08798769 8.66832622 5 11 C3 9 3 9 2.875 6.375 C2.91625 5.59125 2.9575 4.8075 3 4 C2.01 4 1.02 4 0 4 C0 2.68 0 1.36 0 0 Z " fill="#5C3374" transform="translate(269,170)"/>
<path d="M0 0 C0.33 1.32 0.66 2.64 1 4 C-1.31 4.66 -3.62 5.32 -6 6 C-3.84615385 0 -3.84615385 0 0 0 Z " fill="#6B4681" transform="translate(324,115)"/>
<path d="M0 0 C-1.39332574 3.36720387 -2.9789286 4.9859524 -6 7 C-6 6.34 -6 5.68 -6 5 C-6.66 4.34 -7.32 3.68 -8 3 C-7.34 3 -6.68 3 -6 3 C-6 2.34 -6 1.68 -6 1 C-3.92446352 0.4465236 -2.15634036 0 0 0 Z " fill="#5E2F78" transform="translate(140,86)"/>
<path d="M0 0 C0.66 0.33 1.32 0.66 2 1 C1.67 2.32 1.34 3.64 1 5 C-1.97 4.67 -4.94 4.34 -8 4 C-5.31143836 2.20762558 -3.0466145 1.01553817 0 0 Z " fill="#714D82" transform="translate(165,72)"/>
<path d="M0 0 C3.73884332 2.65654657 5.64978174 4.58110387 7 9 C6.01 8.67 5.02 8.34 4 8 C4 8.66 4 9.32 4 10 C3.34 10 2.68 10 2 10 C2.226875 9.236875 2.45375 8.47375 2.6875 7.6875 C2.790625 6.800625 2.89375 5.91375 3 5 C1.62485459 3.2912354 1.62485459 3.2912354 0 2 C0 1.34 0 0.68 0 0 Z " fill="#9F88B0" transform="translate(265,162)"/>
<path d="M0 0 C0.99 0.33 1.98 0.66 3 1 C0.51047079 3.66735273 -1.63408134 5.55746343 -5 7 C-5 6.01 -5 5.02 -5 4 C-2.6875 1.75 -2.6875 1.75 0 0 Z " fill="#653876" transform="translate(41,146)"/>
<path d="M0 0 C-0.99 1.32 -1.98 2.64 -3 4 C-4.65 3.67 -6.3 3.34 -8 3 C-8 2.34 -8 1.68 -8 1 C-3.375 -1.125 -3.375 -1.125 0 0 Z " fill="#5C2E7B" transform="translate(106,107)"/>
<path d="M0 0 C-5.445 2.475 -5.445 2.475 -11 5 C-10.67 3.68 -10.34 2.36 -10 1 C-9.01 1.33 -8.02 1.66 -7 2 C-7 1.34 -7 0.68 -7 0 C-4 -1 -4 -1 0 0 Z " fill="#735386" transform="translate(307,396)"/>
<path d="M0 0 C0.66 0.33 1.32 0.66 2 1 C1.67 2.65 1.34 4.3 1 6 C-1.31 5.67 -3.62 5.34 -6 5 C-4.06745228 2.9754262 -2.36841312 1.57894208 0 0 Z " fill="#8A6B9A" transform="translate(407,61)"/>
<path d="M0 0 C1.65 0 3.3 0 5 0 C1.80009492 2.74277578 -1.00499382 4.6302836 -5 6 C-4.67 5.01 -4.34 4.02 -4 3 C-3.01 3 -2.02 3 -1 3 C-0.67 2.01 -0.34 1.02 0 0 Z " fill="#926DA1" transform="translate(36,427)"/>
<path d="M0 0 C-1.0975223 2.99324263 -1.67682892 3.84610901 -4.625 5.25 C-5.40875 5.4975 -6.1925 5.745 -7 6 C-7 5.01 -7 4.02 -7 3 C-4.46815512 0.64276511 -3.52809907 0 0 0 Z " fill="#6D4D7C" transform="translate(384,347)"/>
<path d="M0 0 C0.33 0.99 0.66 1.98 1 3 C1.99 3 2.98 3 4 3 C6.1875 6 6.1875 6 8 9 C7.01 9.33 6.02 9.66 5 10 C4.54625 9.195625 4.0925 8.39125 3.625 7.5625 C2.25274335 4.91143428 2.25274335 4.91143428 0 4 C0 2.68 0 1.36 0 0 Z " fill="#58366E" transform="translate(261,159)"/>
<path d="M0 0 C-0.33 0.99 -0.66 1.98 -1 3 C-3.97 2.505 -3.97 2.505 -7 2 C-7.33 2.66 -7.66 3.32 -8 4 C-8.33 3.01 -8.66 2.02 -9 1 C-6.04335481 -0.4783226 -3.25770263 -0.06032783 0 0 Z " fill="#5F357B" transform="translate(339,376)"/>
<path d="M0 0 C1.65 0 3.3 0 5 0 C4.67 0.99 4.34 1.98 4 3 C1.4375 4.1875 1.4375 4.1875 -1 5 C-0.67 3.35 -0.34 1.7 0 0 Z " fill="#755089" transform="translate(62,410)"/>
<path d="M0 0 C1.32 0.33 2.64 0.66 4 1 C1.87219421 3.34058637 -0.11562221 4.70700306 -3 6 C-2.67 4.68 -2.34 3.36 -2 2 C-1.34 2 -0.68 2 0 2 C0 1.34 0 0.68 0 0 Z " fill="#725383" transform="translate(332,378)"/>
<path d="M0 0 C0.66 0.33 1.32 0.66 2 1 C1.67 2.32 1.34 3.64 1 5 C-0.65 5 -2.3 5 -4 5 C-4.33 4.01 -4.66 3.02 -5 2 C-2.625 0.9375 -2.625 0.9375 0 0 Z " fill="#5C2E75" transform="translate(393,337)"/>
<path d="M0 0 C2.5 2.3125 2.5 2.3125 5 5 C5 5.99 5 6.98 5 8 C4.34 7.67 3.68 7.34 3 7 C2.67 7.66 2.34 8.32 2 9 C1.34 6.03 0.68 3.06 0 0 Z " fill="#A88BB4" transform="translate(272,171)"/>
<path d="M0 0 C0 0.66 0 1.32 0 2 C-0.99 2.33 -1.98 2.66 -3 3 C-3 3.99 -3 4.98 -3 6 C-3.99 6.33 -4.98 6.66 -6 7 C-6 6.34 -6 5.68 -6 5 C-6.66 4.67 -7.32 4.34 -8 4 C-2.25 0 -2.25 0 0 0 Z " fill="#9472A5" transform="translate(78,121)"/>
<path d="M0 0 C2.31 1.65 4.62 3.3 7 5 C6.67 5.66 6.34 6.32 6 7 C5.34 6.67 4.68 6.34 4 6 C3.01 6 2.02 6 1 6 C0.67 4.02 0.34 2.04 0 0 Z " fill="#714E86" transform="translate(226,113)"/>
<path d="M0 0 C0.66 0.33 1.32 0.66 2 1 C0.8125 3.4375 0.8125 3.4375 -1 6 C-3.6875 6.8125 -3.6875 6.8125 -6 7 C-4.6875 4.5 -4.6875 4.5 -3 2 C-2.01 2 -1.02 2 0 2 C0 1.34 0 0.68 0 0 Z " fill="#5F3179" transform="translate(95,110)"/>
<path d="M0 0 C0.66 0.33 1.32 0.66 2 1 C1.34 2.32 0.68 3.64 0 5 C-1.98 5 -3.96 5 -6 5 C-4.06745228 2.9754262 -2.36841312 1.57894208 0 0 Z " fill="#8D70A1" transform="translate(358,92)"/>
<path d="M0 0 C0.66 0.33 1.32 0.66 2 1 C1.6875 2.9375 1.6875 2.9375 1 5 C0.01 5.33 -0.98 5.66 -2 6 C-2 5.34 -2 4.68 -2 4 C-3.32 4.33 -4.64 4.66 -6 5 C-2.25 1.125 -2.25 1.125 0 0 Z " fill="#9678AB" transform="translate(366,87)"/>
<path d="M0 0 C2.97 0.495 2.97 0.495 6 1 C5.67 1.99 5.34 2.98 5 4 C3.68 4 2.36 4 1 4 C0.67 2.68 0.34 1.36 0 0 Z " fill="#B34B9C" transform="translate(251,400)"/>
<path d="M0 0 C0.99 0.33 1.98 0.66 3 1 C3.73046875 2.84765625 3.73046875 2.84765625 4.1875 5.0625 C4.34605469 5.79597656 4.50460938 6.52945312 4.66796875 7.28515625 C4.83232422 8.13400391 4.83232422 8.13400391 5 9 C1.7457985 6.16569547 0.4793247 4.31392226 0 0 Z " fill="#A3719F" transform="translate(186,308)"/>
<path d="M0 0 C2.5 2.3125 2.5 2.3125 5 5 C5 5.99 5 6.98 5 8 C4.01 8 3.02 8 2 8 C1.34 5.36 0.68 2.72 0 0 Z " fill="#5A346E" transform="translate(280,184)"/>
<path d="M0 0 C-2.31 1.32 -4.62 2.64 -7 4 C-7.33 3.01 -7.66 2.02 -8 1 C-4.93251126 -0.86240388 -3.40254489 -1.2151946 0 0 Z " fill="#725684" transform="translate(373,357)"/>
<path d="M0 0 C0 0.66 0 1.32 0 2 C-0.99 2 -1.98 2 -3 2 C-3.33 3.32 -3.66 4.64 -4 6 C-5.32 5.34 -6.64 4.68 -8 4 C-2.25 0 -2.25 0 0 0 Z " fill="#8F6DA1" transform="translate(95,110)"/>
</svg>
