<?xml version="1.0" encoding="UTF-8"?>
<svg version="1.1" xmlns="http://www.w3.org/2000/svg" width="1200" height="670">
<path d="M0 0 C396 0 792 0 1200 0 C1200 221.1 1200 442.2 1200 670 C804 670 408 670 0 670 C0 448.9 0 227.8 0 0 Z " fill="#0AA98E" transform="translate(0,0)"/>
<path d="M0 0 C15.54041749 11.97486716 25.37186576 25.89942622 28.4375 45.375 C30.65324371 66.1320267 26.02688138 84.41383638 13.25 101.0625 C8.69425406 106.4550156 3.50273864 110.75659268 -2.5625 114.375 C-3.2225 114.375 -3.8825 114.375 -4.5625 114.375 C-4.8925 115.365 -5.2225 116.355 -5.5625 117.375 C-8.1171875 118.69140625 -8.1171875 118.69140625 -11.4375 119.9375 C-12.50742187 120.35128906 -13.57734375 120.76507813 -14.6796875 121.19140625 C-34.58851141 127.73272483 -58.38156486 126.71572853 -77.38671875 118.09375 C-87.89167395 112.42074437 -97.76244636 102.811012 -103.5625 92.375 C-103.5625 91.715 -103.5625 91.055 -103.5625 90.375 C-104.2225 90.375 -104.8825 90.375 -105.5625 90.375 C-114.1212901 75.7027884 -114.55366046 54.54315744 -111.31640625 38.17578125 C-106.54899009 20.46470673 -95.03403369 6.03390441 -79.5625 -3.625 C-55.29443054 -17.58286203 -22.93367541 -15.87217648 0 0 Z " fill="#0F88B2" transform="translate(500.5625,278.625)"/>
<path d="M0 0 C1.20025803 0.59690707 2.40220925 1.19041673 3.60546875 1.78125 C11.95609684 5.95761895 18.97183757 10.79605947 26 17 C27.45019531 18.13308594 27.45019531 18.13308594 28.9296875 19.2890625 C32.55917217 22.30754623 35.27508174 25.90115621 38.0625 29.6875 C38.58835693 30.39648438 39.11421387 31.10546875 39.65600586 31.8359375 C43.3982597 36.97137848 46.5856911 42.10188571 49 48 C49.31453125 48.72832031 49.6290625 49.45664062 49.953125 50.20703125 C51.46010891 53.89914184 52.37472259 57.00295906 52 61 C52.66 61 53.32 61 54 61 C56.19719783 68.97792069 56.29899997 76.5682557 56.25 84.8125 C56.25773438 86.10220703 56.26546875 87.39191406 56.2734375 88.72070312 C56.24913386 100.73277791 54.80191713 110.99634488 50 122 C49.39559985 123.6457476 48.79143535 125.29158177 48.1875 126.9375 C45.85905971 132.76776781 42.51100319 137.8212703 39 143 C38.5771875 143.66128906 38.154375 144.32257813 37.71875 145.00390625 C34.51079355 149.848354 30.47704111 153.34125815 26 157 C25.23558594 157.65097656 24.47117187 158.30195313 23.68359375 158.97265625 C-0.36741216 179.00872699 -28.69741315 183.05773765 -59 181 C-65.18492832 180.25162771 -71.045019 178.79374843 -77 177 C-78.39025391 176.6596875 -78.39025391 176.6596875 -79.80859375 176.3125 C-99.25368846 171.33455575 -117.24022934 157.51787727 -128.0390625 140.8125 C-129 139 -129 139 -129 137 C-129.66 137 -130.32 137 -131 137 C-135.97395989 126.49320833 -139.58455442 116.38895578 -142 105 C-142.1757959 104.22986572 -142.3515918 103.45973145 -142.53271484 102.66625977 C-146.88606627 77.82668245 -141.55630233 51.89748616 -127.35546875 31.22265625 C-112.95867031 11.52554396 -92.23449191 -2.28820728 -68.35546875 -7.4921875 C-45.75441106 -10.91260368 -20.54676237 -11.18029327 0 0 Z M-101.03125 43.56640625 C-112.93150589 58.27644478 -115.35049077 76.58830915 -114 95 C-112.78359241 103.42320599 -110.83155274 112.33689452 -107 120 C-106.34 120 -105.68 120 -105 120 C-104.73058594 120.73863281 -104.46117187 121.47726562 -104.18359375 122.23828125 C-98.64360078 135.16493152 -85.67197009 144.89933279 -73 150 C-72.04738281 150.4125 -71.09476563 150.825 -70.11328125 151.25 C-61.81055202 154.2502334 -53.69534995 154.38353842 -44.9375 154.4375 C-43.76638672 154.44765137 -42.59527344 154.45780273 -41.38867188 154.46826172 C-30.85517434 154.36351686 -20.83945655 152.61517942 -11.1875 148.3125 C-10.19105469 147.87550781 -9.19460938 147.43851563 -8.16796875 146.98828125 C-7.45253906 146.66214844 -6.73710937 146.33601562 -6 146 C-6 145.34 -6 144.68 -6 144 C-4.89591797 143.5978125 -4.89591797 143.5978125 -3.76953125 143.1875 C10.93955086 136.88064392 18.58398833 121.78601081 24.32421875 107.765625 C30.34391763 90.10784162 28.19019007 70.10947874 20.30859375 53.41796875 C10.2471163 35.71060865 -5.63964833 24.74070452 -25 19 C-26.22396484 18.63068359 -26.22396484 18.63068359 -27.47265625 18.25390625 C-55.00693719 11.40575747 -82.95387798 22.65648826 -101.03125 43.56640625 Z " fill="#FAFCFD" transform="translate(502,249)"/>
<path d="M0 0 C3.18872449 1.59436224 4.91668894 2.64126008 7.4375 4.9375 C11.01733131 8.1380555 14.64572806 11.2747011 18.3125 14.375 C18.87106689 14.8479248 19.42963379 15.32084961 20.00512695 15.80810547 C23.51186055 18.76853859 27.05573239 21.67746967 30.625 24.5625 C35.32855351 28.38669351 39.790898 32.4268493 44.25 36.53125 C46.93737634 38.94378104 49.68965444 41.2325621 52.5 43.5 C57.25739668 47.33835414 61.75783918 51.39622359 66.25390625 55.53515625 C68.91875166 57.92707297 71.64831825 60.19254884 74.4375 62.4375 C78.4559807 65.67747162 82.28726148 69.04774751 86.0625 72.5625 C90.40979281 76.60868162 94.89877762 80.38165839 99.57421875 84.04296875 C102.11393664 86.0919199 104.5263845 88.2390183 106.9375 90.4375 C110.27782868 93.48217847 113.67397758 96.40695745 117.1875 99.25 C122.96563651 103.92947675 128.56898956 108.7941582 134.17578125 113.67578125 C137.76767945 116.80292032 141.38024351 119.90518766 145 123 C150.47450923 127.68327459 155.92368466 132.3949675 161.36376953 137.11816406 C166.45609655 141.53640847 171.57110864 145.92770481 176.69726562 150.30664062 C180.89900454 153.89900454 180.89900454 153.89900454 182 155 C182.08861992 157.8116338 182.11522355 160.59858255 182.09765625 163.41015625 C182.09553383 164.67320839 182.09553383 164.67320839 182.09336853 165.96177673 C182.08775263 168.66205335 182.07519748 171.36224828 182.0625 174.0625 C182.05748705 175.88867068 182.05292379 177.71484266 182.04882812 179.54101562 C182.03777804 184.02737542 182.02050279 188.51367384 182 193 C178.11469474 192.18536386 176.33620846 190.75066898 173.4375 188 C169.88204125 184.70036721 166.27743145 181.5433774 162.5 178.5 C158.04657167 174.89722652 153.79001814 171.13249655 149.55859375 167.2734375 C145.92034876 164.0406763 142.14220237 160.99186896 138.34765625 157.9453125 C134.57472753 154.8189922 134.57472753 154.8189922 133 153 C133 152.34 133 151.68 133 151 C132.44441406 150.9278125 131.88882813 150.855625 131.31640625 150.78125 C128.11503697 149.70153017 126.37606588 147.82723224 123.9375 145.5 C120.22985743 142.01721446 116.46902278 138.68888487 112.5 135.5 C107.74404581 131.66280969 103.24495199 127.60614899 98.75 123.46875 C96.06262366 121.05621896 93.31034556 118.7674379 90.5 116.5 C86.71539666 113.44651321 83.07792463 110.29331699 79.5 107 C75.12963181 102.98148349 70.62525525 99.20212924 66.0078125 95.47265625 C62.49298468 92.5831939 59.05595623 89.61311132 55.625 86.625 C50.68841274 82.3282005 45.73999282 78.04725066 40.75 73.8125 C39.9448999 73.12631592 39.9448999 73.12631592 39.12353516 72.42626953 C36.8105758 70.46834683 34.52592402 68.68394935 32 67 C32 66.34 32 65.68 32 65 C31.34 65 30.68 65 30 65 C30 105.92 30 146.84 30 189 C20.1 189 10.2 189 0 189 C0 126.63 0 64.26 0 0 Z " fill="#FCFDFE" transform="translate(165,238)"/>
<path d="M0 0 C4.50080518 1.50026839 5.9346808 4.87687186 8 9 C8.8125 12.5 8.8125 12.5 9 15 C9.99 15.33 10.98 15.66 12 16 C13.10327148 17.57885742 13.10327148 17.57885742 14.12109375 19.60546875 C14.49943359 20.34216797 14.87777344 21.07886719 15.26757812 21.83789062 C15.84668945 23.00094727 15.84668945 23.00094727 16.4375 24.1875 C19.55838473 30.42580109 19.55838473 30.42580109 23.23828125 36.33984375 C25.19239803 39.29051676 25.66739891 41.50768851 26 45 C26.99 45.33 27.98 45.66 29 46 C30.48484143 48.3581046 31.79251701 50.65571952 33.0625 53.125 C33.41376953 53.77726562 33.76503906 54.42953125 34.12695312 55.1015625 C35.82788855 58.34266441 37.1773604 61.37019593 38.05859375 64.9296875 C38.36925781 65.94289063 38.67992187 66.95609375 39 68 C39.99 68.33 40.98 68.66 42 69 C45.76214533 74.53312977 48.54978681 80.47404063 50 87 C50.66 87 51.32 87 52 87 C60.41061534 101.16739574 60.41061534 101.16739574 63.11328125 109.01171875 C64.10445191 111.23421155 65.25791792 112.32243948 67 114 C70.10984011 118.55947912 72.86063515 123.21788615 74.6875 128.4375 C75.95506154 131.87802418 76.54842628 132.61091588 79 135 C80.86296851 137.8687519 82.47309313 140.88062126 84.125 143.875 C84.58003906 144.67808594 85.03507813 145.48117187 85.50390625 146.30859375 C85.93832031 147.09105469 86.37273437 147.87351562 86.8203125 148.6796875 C87.21492676 149.38851074 87.60954102 150.09733398 88.01611328 150.82763672 C89.09261015 153.2044777 89.58106072 155.43181785 90 158 C90.66 158 91.32 158 92 158 C92.34256836 158.63502441 92.68513672 159.27004883 93.03808594 159.92431641 C94.60571694 162.82618028 96.17781614 165.72560046 97.75 168.625 C98.28882813 169.62402344 98.82765625 170.62304688 99.3828125 171.65234375 C102.66158079 177.72486405 102.66158079 177.72486405 106.390625 183.5234375 C108 186 108 186 108 189 C97.44 189 86.88 189 76 189 C74.68 186.36 73.36 183.72 72 181 C71.28471477 179.65987625 70.56016314 178.324534 69.81640625 177 C69.44862061 176.34443115 69.08083496 175.6888623 68.7019043 175.01342773 C68.13789917 174.01678101 68.13789917 174.01678101 67.5625 173 C67.16780518 172.30011963 66.77311035 171.60023926 66.36645508 170.87915039 C64.02548003 166.74861285 61.61817017 162.67788975 59.0625 158.67578125 C54 150.69117647 54 150.69117647 54 148 C40.41312932 147.89901558 26.82723475 147.85174133 13.23997307 147.87302971 C6.93069072 147.88122741 0.62256846 147.87092749 -5.68652344 147.81835938 C-11.77543972 147.76830621 -17.86260837 147.76683582 -23.95162582 147.79904556 C-26.27447138 147.80279671 -28.5974133 147.78904294 -30.92004776 147.75750351 C-34.17540959 147.71628963 -37.42487332 147.73733518 -40.68017578 147.77294922 C-41.64043167 147.7463472 -42.60068756 147.71974518 -43.59004211 147.69233704 C-46.39091045 147.76194239 -48.40872255 147.92329306 -51 149 C-53.65680629 152.05389297 -55.30397954 155.3476162 -57 159 C-57.74055839 160.29624063 -58.49438479 161.58505785 -59.265625 162.86328125 C-59.92046875 164.00152344 -60.5753125 165.13976562 -61.25 166.3125 C-61.58773437 166.89322266 -61.92546875 167.47394531 -62.2734375 168.07226562 C-64.12793155 171.30302789 -65.71401461 174.50290707 -67 178 C-67.66 178 -68.32 178 -69 178 C-69.268125 178.886875 -69.53625 179.77375 -69.8125 180.6875 C-71.83328648 186.3244307 -71.83328648 186.3244307 -74 189 C-76.64887068 189.45867463 -78.65434237 189.58776379 -81.29296875 189.48828125 C-82.35201164 189.47766914 -82.35201164 189.47766914 -83.43244934 189.46684265 C-85.68521584 189.4388753 -87.93548648 189.37614334 -90.1875 189.3125 C-91.71545886 189.28741966 -93.24345673 189.26460601 -94.77148438 189.24414062 C-98.51528306 189.18904244 -102.25721859 189.10276286 -106 189 C-101.63182701 179.99989709 -97.06902199 171.23325589 -91.92871094 162.64746094 C-88.61849437 157.10190421 -85.47002679 151.48072702 -82.375 145.8125 C-69.80265738 122.80265738 -69.80265738 122.80265738 -68 121 C-66.63391674 120.90464787 -65.26294545 120.8781133 -63.89353943 120.87974548 C-63.00867859 120.87837082 -62.12381775 120.87699615 -61.21214294 120.87557983 C-59.74479454 120.88097275 -59.74479454 120.88097275 -58.24780273 120.88647461 C-57.2235318 120.88632858 -56.19926086 120.88618256 -55.14395142 120.8860321 C-51.74047771 120.88673172 -48.33705796 120.89452637 -44.93359375 120.90234375 C-42.58089732 120.90420776 -40.2282005 120.90563174 -37.87550354 120.90663147 C-31.66943295 120.91045801 -25.4633856 120.92028945 -19.25732422 120.93133545 C-12.93001622 120.94154666 -6.60270448 120.94612846 -0.27539062 120.95117188 C12.14974982 120.9619116 24.57487298 120.97898964 37 121 C36.01 117.04 36.01 117.04 35 113 C34.34 113 33.68 113 33 113 C32.45730469 111.90300781 31.91460938 110.80601562 31.35546875 109.67578125 C30.6329203 108.22130061 29.91025804 106.7668765 29.1875 105.3125 C28.83107422 104.59126953 28.47464844 103.87003906 28.10742188 103.12695312 C26.573165 100.04436362 25.02998465 97.04926524 23.23828125 94.10546875 C22 92 22 92 22 90 C21.34 90 20.68 90 20 90 C19.47212891 88.97398682 19.47212891 88.97398682 18.93359375 87.92724609 C11.46018668 73.42190933 3.88843523 59.07827629 -4.55224609 45.109375 C-14.13930171 29.2260509 -14.13930171 29.2260509 -13.72216797 25.5546875 C-13.0065936 23.02332501 -12.11475069 21.03336994 -10.8203125 18.75 C-10.38589844 17.9765625 -9.95148438 17.203125 -9.50390625 16.40625 C-9.04886719 15.6121875 -8.59382812 14.818125 -8.125 14 C-7.67769531 13.2059375 -7.23039063 12.411875 -6.76953125 11.59375 C-4.56719955 7.69581779 -2.32851089 3.82430928 0 0 Z " fill="#FAFDFB" transform="translate(926,238)"/>
<path d="M0 0 C1.97321547 0.04521783 3.94653104 0.08626953 5.91992188 0.12304688 C10.71995015 0.22148774 15.51510504 0.37635713 20.3125 0.5625 C18.61593574 4.30122495 16.69982271 6.1913741 13.3125 8.5625 C12.6525 8.5625 11.9925 8.5625 11.3125 8.5625 C11.3125 9.2225 11.3125 9.8825 11.3125 10.5625 C9.61975716 12.12682787 7.85680148 13.61578572 6.0625 15.0625 C5.08796875 15.8565625 4.1134375 16.650625 3.109375 17.46875 C0.86355238 19.14998034 -1.1340803 20.44385899 -3.6875 21.5625 C-3.6875 22.2225 -3.6875 22.8825 -3.6875 23.5625 C-5.15440559 24.8952188 -6.69072501 26.15163869 -8.25 27.375 C-12.92317316 31.11353853 -17.48962954 34.94172775 -22 38.875 C-23.2785552 39.98838534 -24.55720172 41.10166582 -25.8359375 42.21484375 C-26.47241211 42.76897949 -27.10888672 43.32311523 -27.76464844 43.89404297 C-31.45376433 47.0950864 -35.16769819 50.26722926 -38.88305664 53.43774414 C-42.72107472 56.71726327 -46.50595127 60.04891203 -50.234375 63.453125 C-51.6875 64.5625 -51.6875 64.5625 -53.6875 64.5625 C-53.6875 65.2225 -53.6875 65.8825 -53.6875 66.5625 C-55.15440559 67.8952188 -56.69072501 69.15163869 -58.25 70.375 C-63.81550949 74.82017966 -69.20207903 79.43806881 -74.55883789 84.13208008 C-77.52741049 86.72481432 -80.48025211 89.26357044 -83.6875 91.5625 C-82.43787201 95.31138398 -80.90853014 96.20869319 -77.8125 98.625 C-73.80420413 101.82024361 -69.95599608 105.08179973 -66.1875 108.5625 C-61.69504241 112.69658491 -57.05378895 116.57980212 -52.3046875 120.4140625 C-49.11096966 123.03577118 -46.04977651 125.78568807 -42.98046875 128.55078125 C-40.54098455 130.69104422 -38.03224008 132.72051123 -35.5 134.75 C-31.00520995 138.38743879 -26.76803055 142.22567022 -22.5625 146.1875 C-18.14344948 150.34964972 -13.68398575 154.25516934 -8.8203125 157.8984375 C-5.48763001 160.4986623 -2.42109055 163.38191267 0.69921875 166.23046875 C4.28800104 169.43301438 8.01499029 172.45107877 11.75 175.48046875 C14.99458987 178.11669802 18.18775214 180.78494635 21.3125 183.5625 C21.3125 183.8925 21.3125 184.2225 21.3125 184.5625 C15.26631306 184.83673393 9.22382493 185.03505941 3.17285156 185.16674805 C1.12012616 185.22169148 -0.93217623 185.29648094 -2.98339844 185.39233398 C-21.8720045 186.25216099 -21.8720045 186.25216099 -28.26080322 180.80110168 C-30.55411873 178.51466397 -32.60920928 176.04376617 -34.6875 173.5625 C-36.50789458 172.0014005 -38.35817708 170.47372796 -40.25 169 C-44.01588189 165.96892433 -47.63079756 162.83668423 -51.1875 159.5625 C-55.63343464 155.47021925 -60.2315372 151.64006886 -64.93359375 147.84765625 C-67.78832133 145.47883975 -70.5218921 143.01323583 -73.25 140.5 C-77.41264497 136.66800485 -81.70750852 133.11641737 -86.15625 129.625 C-89.90355583 126.5716397 -93.41489426 123.27433899 -96.96875 120 C-99.47689778 117.75131578 -102.03833213 115.64159377 -104.6875 113.5625 C-109.36885676 109.88588595 -113.74668055 105.93629404 -118.125 101.90625 C-121.2508421 99.04724808 -124.45126844 96.29531776 -127.6875 93.5625 C-126.37654505 90.60938061 -125.0533972 88.73485391 -122.59765625 86.64453125 C-121.98374023 86.11706299 -121.36982422 85.58959473 -120.73730469 85.04614258 C-120.08149414 84.49466553 -119.42568359 83.94318848 -118.75 83.375 C-118.07485352 82.79838623 -117.39970703 82.22177246 -116.70410156 81.62768555 C-111.96080075 77.59115679 -107.13854646 73.65602428 -102.296875 69.73828125 C-98.56467123 66.62624906 -95.01631087 63.32528895 -91.44140625 60.03515625 C-87.85894018 56.81855906 -84.12742408 53.80965022 -80.3828125 50.78515625 C-76.82624289 47.85227493 -73.41825431 44.77227664 -70.0078125 41.671875 C-64.0914399 36.29335446 -58.0030241 31.12053633 -51.8918457 25.96582031 C-48.95906744 23.49054033 -46.0343931 21.00665278 -43.125 18.50390625 C-42.23192139 17.73566528 -42.23192139 17.73566528 -41.32080078 16.9519043 C-40.20360068 15.98967267 -39.08728594 15.02641139 -37.97216797 14.06176758 C-36.86588785 13.10912813 -35.74529514 12.17294436 -34.61352539 11.25073242 C-32.57674261 9.53237889 -32.57674261 9.53237889 -30.57202148 7.2121582 C-21.6315402 -1.81177113 -11.96531631 -0.47829179 0 0 Z " fill="#FAFCFB" transform="translate(707.6875,242.4375)"/>
<path d="M0 0 C9.57 0 19.14 0 29 0 C29 60.72 29 121.44 29 184 C19.43 184 9.86 184 0 184 C0 123.28 0 62.56 0 0 Z " fill="#FAFCFA" transform="translate(766,243)"/>
<path d="M0 0 C0.99 0.33 1.98 0.66 3 1 C2.67 62.71 2.34 124.42 2 188 C10.58 188 19.16 188 28 188 C28 147.41 28 106.82 28 65 C29.98 64.505 29.98 64.505 32 64 C31.01 64.495 31.01 64.495 30 65 C30 105.92 30 146.84 30 189 C20.1 189 10.2 189 0 189 C0 126.63 0 64.26 0 0 Z " fill="#D5E3F7" transform="translate(165,238)"/>
<path d="M0 0 C3.66970702 0.91742675 4.57836507 1.19596892 7.1796875 3.51953125 C7.77185059 4.04135986 8.36401367 4.56318848 8.97412109 5.10083008 C9.60141113 5.66568115 10.22870117 6.23053223 10.875 6.8125 C12.21832977 8.00047535 13.56208994 9.18796418 14.90625 10.375 C15.9271875 11.28185547 15.9271875 11.28185547 16.96875 12.20703125 C20.07221317 14.94643432 23.22353319 17.62863944 26.375 20.3125 C31.64025822 24.81199628 36.85042046 29.36810306 42 34 C37.87255657 34 36.95305417 32.38249504 34 29.5625 C30.2507482 26.0388425 26.4486849 22.66698884 22.4375 19.4375 C17.92492166 15.80165116 13.62537585 11.99377138 9.38671875 8.04296875 C6.52263243 5.50890994 6.52263243 5.50890994 1 2 C1 64.37 1 126.74 1 191 C10.9 191 20.8 191 31 191 C31 150.08 31 109.16 31 67 C31.66 67 32.32 67 33 67 C33.33 67.99 33.66 68.98 34 70 C33.34 70 32.68 70 32 70 C32 110.26 32 150.52 32 192 C21.44 192 10.88 192 0 192 C0 128.64 0 65.28 0 0 Z " fill="#3971DB" transform="translate(164,236)"/>
<path d="M0 0 C0.77246252 0.00184359 1.54492504 0.00368717 2.34079552 0.00558662 C3.22703102 0.0028373 4.11326653 0.00008797 5.02635765 -0.00274467 C6.00099464 0.00444588 6.97563164 0.01163643 7.97980309 0.01904488 C9.51642853 0.0186068 9.51642853 0.0186068 11.08409691 0.01815987 C14.48219736 0.01955717 17.88008062 0.03513727 21.27814293 0.05078316 C23.62940921 0.05451186 25.98067703 0.0573595 28.33194542 0.0593586 C34.52981394 0.06700627 40.72758918 0.08666451 46.92542076 0.10876656 C53.24610698 0.12920057 59.56680822 0.13835508 65.88751793 0.14843941 C78.29641315 0.16990932 90.70523904 0.20405893 103.11408043 0.24609566 C103.62965508 1.17705307 103.62965508 1.17705307 104.15564537 2.1268177 C104.60631371 2.93953636 105.05698204 3.75225502 105.52130699 4.58960152 C105.96814842 5.39586479 106.41498985 6.20212807 106.87537193 7.03282356 C108.15710206 9.32296489 109.48961555 11.57296914 110.86408043 13.80859566 C113.60613204 18.35011863 116.25026536 22.94249763 118.86408043 27.55859566 C119.44754234 28.5815876 119.44754234 28.5815876 120.04279137 29.62524605 C121.99793299 33.0945552 123.74862757 36.49110028 125.11408043 40.24609566 C124.45408043 40.24609566 123.79408043 40.24609566 123.11408043 40.24609566 C122.53291466 39.20437202 122.53291466 39.20437202 121.94000816 38.14160347 C120.14504584 34.92577383 118.34832087 31.71093215 116.55158043 28.49609566 C115.9424984 27.40425972 115.33341637 26.31242378 114.7058773 25.18750191 C114.09679527 24.09824409 113.48771324 23.00898628 112.86017418 21.88672066 C112.31030846 20.90219917 111.76044273 19.91767769 111.19391441 18.90332222 C110.8635569 18.36901085 110.53319939 17.83469948 110.19283104 17.28419685 C109.11408043 15.24609566 109.11408043 15.24609566 108.13481712 12.20396614 C106.57502048 8.27796037 105.29518281 6.06212672 102.11408043 3.24609566 C94.77787305 0.93259724 86.55448672 1.78281217 78.96954918 1.96875191 C76.67508558 1.98352768 74.38058579 1.99342169 72.08608055 1.99864388 C67.28604534 2.02153489 62.48870391 2.08311927 57.68951988 2.1760273 C51.52752252 2.29508837 45.36727187 2.34890569 39.2042551 2.37795544 C33.33411508 2.40781582 27.46440454 2.46750225 21.59454918 2.53125191 C19.9076954 2.54653277 19.9076954 2.54653277 18.18676376 2.56212234 C15.01902537 2.5967245 11.852414 2.65225314 8.68512535 2.7150898 C7.74018715 2.72315651 6.79524895 2.73122322 5.82167625 2.73953438 C4.96238518 2.76100029 4.1030941 2.7824662 3.2177639 2.8045826 C2.4691418 2.81740304 1.7205197 2.83022348 0.94921207 2.84343243 C-1.29918725 3.11434529 -1.29918725 3.11434529 -2.88591957 6.24609566 C-3.54591957 6.24609566 -4.20591957 6.24609566 -4.88591957 6.24609566 C-4.9992765 6.9753022 -5.11263344 7.70450874 -5.22942543 8.45581245 C-5.90988492 11.34795509 -6.88193411 13.34280988 -8.38982582 15.89062691 C-8.88289223 16.73174019 -9.37595863 17.57285347 -9.88396645 18.43945503 C-10.40023598 19.30377144 -10.91650551 20.16808784 -11.44841957 21.05859566 C-11.96855629 21.942248 -12.48869301 22.82590034 -13.02459145 23.73633003 C-14.30535907 25.91010994 -15.59260297 28.07976653 -16.88591957 30.24609566 C-17.91453143 27.07003843 -18.04098018 26.5524349 -16.44451332 23.39843941 C-15.39457191 21.80709175 -15.39457191 21.80709175 -14.32341957 20.18359566 C-13.57747623 19.0315349 -12.83402275 17.87785852 -12.09295082 16.72265816 C-11.71992836 16.14419136 -11.3469059 15.56572456 -10.96257973 14.96972847 C-8.82493405 11.54755648 -6.98461324 7.96231849 -5.11248207 4.39062691 C-2.81106943 0.36681945 -2.81106943 0.36681945 0 0 Z " fill="#66CF60" transform="translate(876.8859195709229,385.75390434265137)"/>
<path d="M0 0 C3.66970702 0.91742675 4.57836507 1.19596892 7.1796875 3.51953125 C7.77185059 4.04135986 8.36401367 4.56318848 8.97412109 5.10083008 C9.60141113 5.66568115 10.22870117 6.23053223 10.875 6.8125 C12.21832977 8.00047535 13.56208994 9.18796418 14.90625 10.375 C15.9271875 11.28185547 15.9271875 11.28185547 16.96875 12.20703125 C20.07221317 14.94643432 23.22353319 17.62863944 26.375 20.3125 C31.64025822 24.81199628 36.85042046 29.36810306 42 34 C37.87255657 34 36.95305417 32.38249504 34 29.5625 C30.2507482 26.0388425 26.4486849 22.66698884 22.4375 19.4375 C17.92492166 15.80165116 13.62537585 11.99377138 9.38671875 8.04296875 C6.52263243 5.50890994 6.52263243 5.50890994 1 2 C1 20.81 1 39.62 1 59 C0.67 59 0.34 59 0 59 C0 39.53 0 20.06 0 0 Z " fill="#389BE0" transform="translate(164,236)"/>
<path d="M0 0 C4.15210786 1.70788673 7.28754487 4.64425959 10.625 7.5625 C11.24600586 8.0997168 11.86701172 8.63693359 12.50683594 9.19042969 C16.12832173 12.33328855 19.70261217 15.5235663 23.25 18.75 C27.19132122 22.33067745 31.2842819 25.65077232 35.46875 28.94140625 C39.09777418 31.89278857 42.53139663 35.04399405 45.96875 38.21484375 C47.8768145 40.04445938 47.8768145 40.04445938 50 41 C50 41.66 50 42.32 50 43 C46.60963486 41.51623476 44.26136946 39.57932093 41.5625 37.0625 C37.67087411 33.4961273 33.72485095 30.02356792 29.6875 26.625 C29.14254883 26.16569092 28.59759766 25.70638184 28.03613281 25.2331543 C26.35850164 23.82081267 24.67949995 22.41011866 23 21 C5.25802912 6.1037303 5.25802912 6.1037303 0 1 C0 0.67 0 0.34 0 0 Z " fill="#3A86D4" transform="translate(214,278)"/>
<path d="M0 0 C3.41376419 3.06061617 4.97353973 5.91583447 7 10 C9.73720614 14.91843926 12.54873562 19.79533695 15.34960938 24.67773438 C15.91615234 25.67224609 16.48269531 26.66675781 17.06640625 27.69140625 C17.8389978 29.04020874 17.8389978 29.04020874 18.62719727 30.41625977 C19.9448543 32.89621074 21.0109212 35.37398839 22 38 C21.34 38 20.68 38 20 38 C19.410979 36.94256592 19.410979 36.94256592 18.81005859 35.86376953 C17.00003733 32.6165818 15.18753423 29.37078565 13.375 26.125 C12.75753906 25.01640625 12.14007812 23.9078125 11.50390625 22.765625 C8.14882521 16.76179578 4.73132729 10.83172953 1.05322266 5.01904297 C0 3 0 3 0 0 Z " fill="#51DA4B" transform="translate(980,388)"/>
<path d="M0 0 C0.33 1.32 0.66 2.64 1 4 C0.34 4 -0.32 4 -1 4 C-1.11335693 4.72920654 -1.22671387 5.45841309 -1.34350586 6.2097168 C-2.02396535 9.10185943 -2.99601454 11.09671423 -4.50390625 13.64453125 C-5.24350586 14.90620117 -5.24350586 14.90620117 -5.99804688 16.19335938 C-6.51431641 17.05767578 -7.03058594 17.92199219 -7.5625 18.8125 C-8.08263672 19.69615234 -8.60277344 20.57980469 -9.13867188 21.49023438 C-10.4194395 23.66401428 -11.7066834 25.83367087 -13 28 C-14.02861186 24.82394277 -14.15506061 24.30633925 -12.55859375 21.15234375 C-11.50865234 19.56099609 -11.50865234 19.56099609 -10.4375 17.9375 C-9.69424701 16.78798571 -8.95339817 15.63691371 -8.21484375 14.484375 C-7.84214355 13.90623047 -7.46944336 13.32808594 -7.08544922 12.73242188 C-4.50572643 8.61507754 -2.27108392 4.29269271 0 0 Z " fill="#69CB64" transform="translate(873,388)"/>
<path d="M0 0 C2.78857094 1.2929693 5.02622669 2.70485469 7.34765625 4.71484375 C7.95287109 5.23626953 8.55808594 5.75769531 9.18164062 6.29492188 C9.80232422 6.83697266 10.42300781 7.37902344 11.0625 7.9375 C11.68705078 8.47568359 12.31160156 9.01386719 12.95507812 9.56835938 C15.72822068 11.96859269 18.42824703 14.38281482 21 17 C20.67 17.66 20.34 18.32 20 19 C19.14277344 18.20335937 18.28554687 17.40671875 17.40234375 16.5859375 C16.24769918 15.51529775 15.0927306 14.44500738 13.9375 13.375 C13.34493408 12.82610107 12.75236816 12.27720215 12.1418457 11.71166992 C9.04016247 8.8487411 5.91883818 6.02976165 2.6875 3.3125 C1.800625 2.549375 0.91375 1.78625 0 1 C0 0.67 0 0.34 0 0 Z " fill="#3D91D9" transform="translate(214,278)"/>
<path d="M0 0 C0.66 0.33 1.32 0.66 2 1 C0.56354149 2.60509934 -0.87420706 4.20904424 -2.3125 5.8125 C-3.11300781 6.70582031 -3.91351563 7.59914063 -4.73828125 8.51953125 C-8.64426354 12.80329421 -8.64426354 12.80329421 -10 14 C-10.66 14 -11.32 14 -12 14 C-12 14.66 -12 15.32 -12 16 C-12.66 15.67 -13.32 15.34 -14 15 C-9.53648711 9.77674023 -4.9255107 4.79077028 0 0 Z " fill="#C4E5F0" transform="translate(392,261)"/>
<path d="M0 0 C2.79120295 1.29577958 5.04706873 2.7157439 7.3828125 4.71484375 C8.29740234 5.49698242 8.29740234 5.49698242 9.23046875 6.29492188 C9.85566406 6.83697266 10.48085938 7.37902344 11.125 7.9375 C11.75792969 8.47568359 12.39085937 9.01386719 13.04296875 9.56835938 C15.8314725 11.96907757 17.93657791 13.90486686 20 17 C17.20879705 15.70422042 14.95293127 14.2842561 12.6171875 12.28515625 C12.00746094 11.76373047 11.39773438 11.24230469 10.76953125 10.70507812 C10.14433594 10.16302734 9.51914062 9.62097656 8.875 9.0625 C8.24207031 8.52431641 7.60914063 7.98613281 6.95703125 7.43164062 C4.1685275 5.03092243 2.06342209 3.09513314 0 0 Z " fill="#4180D0" transform="translate(279,334)"/>
<path d="M0 0 C3.361934 3.01414772 5.09052806 5.93199456 7 10 C7.556875 10.9075 8.11375 11.815 8.6875 12.75 C10 15 10 15 10 17 C9.34 17 8.68 17 8 17 C6.65869239 14.73354942 5.32683766 12.46239903 4 10.1875 C3.42765625 9.22360352 3.42765625 9.22360352 2.84375 8.24023438 C0 3.33984375 0 3.33984375 0 0 Z " fill="#5AD654" transform="translate(980,388)"/>
<path d="M0 0 C0.66 0.33 1.32 0.66 2 1 C0.88200014 2.33920838 -0.24461897 3.67122556 -1.375 5 C-2.00148438 5.7425 -2.62796875 6.485 -3.2734375 7.25 C-4.12808594 8.11625 -4.12808594 8.11625 -5 9 C-5.66 9 -6.32 9 -7 9 C-7 9.66 -7 10.32 -7 11 C-7.66 10.67 -8.32 10.34 -9 10 C-7.8758824 8.70756532 -6.75067408 7.41607925 -5.625 6.125 C-4.99851562 5.40570313 -4.37203125 4.68640625 -3.7265625 3.9453125 C-2.52573166 2.5923402 -1.2791655 1.2791655 0 0 Z " fill="#48AACD" transform="translate(411,282)"/>
<path d="M0 0 C0.99 0.33 1.98 0.66 3 1 C3 1.66 3 2.32 3 3 C1.7934375 3.9590625 1.7934375 3.9590625 0.5625 4.9375 C-2.23720732 6.81035932 -2.23720732 6.81035932 -3 10 C-3.66 10 -4.32 10 -5 10 C-3.66511872 6.40608886 -2.03977277 3.24509304 0 0 Z " fill="#CAEBD3" transform="translate(926,238)"/>
<path d="M0 0 C0.66 0 1.32 0 2 0 C0.66511872 3.59391114 -0.96022723 6.75490696 -3 10 C-3.75 8.375 -3.75 8.375 -4 6 C-2.1875 2.75 -2.1875 2.75 0 0 Z " fill="#5FC95B" transform="translate(863,406)"/>
</svg>
